<svg width="130" height="127" viewBox="0 0 130 127" fill="none" xmlns="http://www.w3.org/2000/svg">
<path d="M109.395 42.8196C109.127 39.0013 111.807 42.8196 112.076 58.1091C112.076 54.2867 112.076 50.4688 112.076 46.642C112.344 42.8196 112.88 46.642 113.416 46.642C113.416 50.4684 113.416 54.2867 113.685 54.2867C113.952 54.2867 114.489 54.2867 114.756 54.2867L114.683 46.6045C114.951 46.6045 115.828 46.6423 116.097 46.6423C116.365 54.2871 116.901 54.2871 116.901 46.6423C117.169 50.4688 117.437 50.4688 117.974 50.4688C118.242 61.9315 118.242 85.0647 118.242 81.2467C118.912 85.067 118.979 91.753 118.912 98.9176C118.865 102.5 118.816 106.201 118.769 109.725C118.76 110.606 118.752 111.475 118.743 112.329C118.74 113.656 118.736 114.96 118.732 116.231C118.731 119.075 118.744 121.778 118.778 124.314C118.785 124.943 118.793 125.574 118.802 126.251C113.009 126.336 107.061 126.423 100.996 126.512C96.6453 126.57 92.2106 126.601 87.7194 126.616C78.7365 126.644 69.5271 126.602 60.3116 126.559C51.0958 126.515 41.874 126.47 32.8658 126.493C28.3619 126.504 23.9113 126.532 19.5416 126.586C13.314 126.669 7.20192 126.751 1.24426 126.831C1.18016 126.832 1.11604 126.833 1.04983 126.834C1.00318 122.994 0.956224 119.14 0.90897 115.272C0.897834 114.387 0.886998 113.501 0.875862 112.615L0.843355 111.02C0.822587 109.955 0.801819 108.889 0.781051 107.82C0.708213 103.548 0.635073 99.2495 0.561633 94.9303C0.430706 86.2923 0.329276 77.5729 0.250418 68.8194C0.171862 60.0659 0.116179 51.279 0.076449 42.5054C0.0604969 38.1188 0.0445458 33.7353 0.0285938 29.3616C0.0189623 22.4913 0.00963146 15.6357 0 8.80399C13.2827 8.79649 26.4239 8.78899 39.2822 8.78149C39.2822 9.38834 35.9058 10.2985 39.2822 10.6024C52.784 11.5125 52.784 12.7269 52.784 13.9409C52.784 14.5481 42.6586 13.9409 46.0311 14.5481C35.9058 14.5481 35.3625 14.8517 45.4993 15.4582C48.8757 16.0657 46.0311 15.4582 49.4039 16.3686C52.784 17.2794 46.0311 18.1899 49.4039 19.0996C52.784 19.0996 50.0487 19.0996 53.4248 19.0996C56.7946 19.7075 52.3349 22.9626 50.2584 22.9687C50.2584 22.9687 36.7284 23.088 29.2017 23.134C25.4385 23.1575 21.6729 23.1806 17.9055 23.2041L15.0796 23.2219L13.6664 23.2307L13.3131 23.2328L13.2809 23.2348L13.2222 23.2392L12.7815 23.2743L12.8128 23.7919L12.8168 23.8522L12.8177 23.8672L12.8186 23.9977L12.8204 24.4042L12.8282 26.0309L12.8438 29.2846C12.8643 33.6232 12.8848 37.9631 12.9055 42.3048C12.945 50.9881 12.9844 59.6768 13.0241 68.3693C13.0606 77.0618 13.0967 85.7581 13.1331 94.456L13.1828 107.504L13.2062 112.97C13.2138 113.003 13.2213 113.028 13.2288 113.046C13.2643 113.036 13.2914 113.027 13.3104 113.018L20.019 112.992C24.4922 112.976 28.9651 112.96 33.4371 112.945C42.3811 112.922 51.3218 112.899 60.2565 112.876C69.1912 112.867 78.1195 112.857 87.0389 112.848C91.4985 112.849 95.9561 112.849 100.411 112.85C102.626 112.852 104.841 112.854 107.055 112.856L106.977 112.866L106.984 112.925L106.988 112.951L106.992 110.821C106.999 107.579 107.005 104.338 107.012 101.1C107.03 94.6233 107.049 88.1538 107.068 81.6927C107.129 68.7704 107.189 57.9803 107.25 45.125L109.395 42.8196Z" fill="#F8FCFC"/>
<path d="M123.516 10.6562L121.957 11.6767L121.177 12.1868C120.918 12.3582 120.666 12.5466 120.41 12.7255L117.351 14.899C109.253 20.8323 101.592 27.6667 94.3883 35.1295C90.7916 38.8691 87.295 42.747 83.9075 46.7541C80.5319 50.7751 77.2606 54.9157 74.0999 59.1609C70.9396 63.4058 67.8904 67.757 64.9636 72.1913L63.8777 73.8616L63.335 74.6967L62.4158 76.1568L61.4484 77.6962L60.9647 78.466C60.8037 78.7222 60.6472 78.9665 60.46 79.2868L58.3032 82.9047C58.1223 83.1995 57.9456 83.5191 57.7689 83.84L57.2383 84.7968L56.1767 86.7101L54.0382 90.6091C52.6441 93.1592 51.2499 95.7085 49.8567 98.2569C48.3939 93.8856 46.9317 89.516 45.4704 85.1488L44.9245 83.514C44.8357 83.2254 44.7366 83.0138 44.6418 82.7691L44.3553 82.0559L43.7822 80.6296L43.4957 79.9168L43.3524 79.5604L43.2805 79.3832L43.1983 79.2292L41.8842 76.765C41.6651 76.3548 41.4496 75.9394 41.2166 75.5493L40.7333 74.7632C39.0637 72.0363 37.114 69.3711 35.057 66.777C30.9197 61.5996 26.2593 56.6919 21.4544 52.1656C20.9166 51.6317 20.5066 51.1996 20.2153 50.8647C19.9275 50.5311 19.7364 50.2732 19.6949 50.1311C19.5976 49.943 19.6049 49.8309 19.6991 49.7832C19.746 49.7593 19.815 49.7515 19.9031 49.758C19.9546 49.7675 19.9751 49.7505 20.0238 49.7573C20.0723 49.7638 20.1247 49.7733 20.1809 49.7859C21.1017 49.9996 23.1179 51.1219 25.0593 52.3714C23.7629 51.5482 24.2737 50.8402 22.962 50.0336C23.2122 49.68 24.1217 49.7185 25.5646 50.3808C27.0027 51.0463 28.9832 52.3312 31.2815 54.5024C30.1778 53.3619 29.0593 52.2406 27.9213 51.14C26.9552 49.8111 28.4435 50.4439 28.7927 49.9876C29.9424 51.0974 31.0642 52.2365 31.2436 52.0102C31.4218 51.7843 31.779 51.3312 31.9575 51.1049C30.8282 49.9502 28.5146 47.704 27.3308 46.6205C28.5079 47.7129 29.6655 48.8325 29.8389 48.6042C30.0132 48.3736 30.362 47.9126 30.5366 47.6812C31.792 48.6973 33.1924 50.1934 34.5592 51.7261C35.9281 53.2573 37.2614 54.8264 38.4473 55.9539L39.0159 55.3113C38.0124 53.9603 36.6182 52.4297 35.1726 50.9734C33.7279 49.5144 32.2335 48.1272 31.0591 46.9905C32.4081 47.9006 32.5805 47.6826 32.9348 47.2226C34.7807 48.8489 36.4175 50.7502 38.0551 52.645C39.6949 54.5426 41.3343 56.4306 43.232 58.0954C42.1626 56.7809 41.0728 55.4943 39.9646 54.2387C41.5489 54.9556 43.5372 57.1557 45.4539 59.7681C45.9309 60.425 46.414 61.0908 46.876 61.7825C47.1087 62.1253 47.3407 62.4674 47.571 62.8071C47.797 63.1537 48.0213 63.4974 48.2428 63.8368C48.6922 64.5067 49.1111 65.1899 49.528 65.8196C49.7378 66.1324 49.9373 66.4469 50.1333 66.7498C50.2326 66.9 50.3301 67.0476 50.4261 67.1927C50.4749 67.2646 50.523 67.3358 50.5709 67.4067L50.607 67.4595C50.6182 67.4755 50.6353 67.5014 50.632 67.4936L50.6389 67.4929C51.1991 68.0688 51.5732 68.5823 51.8143 69.1986L51.8591 69.3128C51.8651 69.3492 51.8772 69.3138 51.888 69.292L51.9211 69.2262L52.0538 68.9707C52.1432 68.8048 52.2326 68.6453 52.3244 68.4896C52.4153 68.3335 52.5101 68.1829 52.6046 68.0313L52.9204 67.5491C53.6436 66.4619 54.3702 65.3698 55.0971 64.2774C56.1367 62.7519 57.1742 61.2241 58.2348 59.7272C62.4429 53.7047 66.7909 47.9657 70.7371 42.5688C73.6858 38.4963 76.8476 34.4671 80.2243 30.5814C80.6445 30.0935 81.0653 29.6048 81.4864 29.1159L82.7824 27.6804C83.6525 26.728 84.5134 25.7603 85.4022 24.8219C86.2985 23.8914 87.196 22.9598 88.0941 22.0276L88.7699 21.3304L89.4609 20.651L90.8469 19.2956C92.6784 17.4672 94.6014 15.7505 96.4973 14.0104C97.4565 13.1548 98.438 12.3306 99.4066 11.4937C99.8927 11.0774 100.378 10.6617 100.863 10.2463C101.353 9.83707 101.854 9.44489 102.348 9.04486C103.341 8.24993 104.331 7.45704 105.318 6.66688C106.328 5.91078 107.335 5.15708 108.339 4.40644C108.841 4.03231 109.343 3.65886 109.843 3.28644C110.349 2.92253 110.865 2.57566 111.374 2.22096C112.394 1.51632 113.41 0.815083 114.421 0.117256C114.69 0.64233 113.765 2.34635 115.237 1.68634C118.157 0.321358 119.747 -0.0592438 120.66 0.00719956C121.576 0.0828428 121.835 0.637219 122.085 1.16706C122.323 1.66931 118.062 5.02453 119.653 4.69947C119.653 4.69947 120.918 4.15531 121.767 4.13146C123.463 4.09705 121.235 6.55886 122.925 6.52717C123.252 6.3258 123.65 6.05151 124.106 5.7905C124.56 5.52677 125.056 5.23919 125.552 4.95127C126.543 4.37543 127.534 3.79993 128.195 3.41626C129.744 3.20432 128.168 7.69862 129.48 6.93912L123.516 10.6562Z" fill="#F8FCFC"/>
</svg>
