<svg width="127" height="167" viewBox="0 0 127 167" fill="none" xmlns="http://www.w3.org/2000/svg">
<path d="M72.1411 0.0532458C71.7497 0.085863 71.4398 0.183715 71.4398 0.281566C71.4398 0.363109 71.1136 0.428343 70.7222 0.428343C70.3145 0.428343 69.9394 0.493578 69.8905 0.591429C69.8416 0.672972 69.4991 0.754515 69.1403 0.754515C68.7978 0.754515 68.5043 0.81975 68.5043 0.917601C68.5043 0.999144 68.1455 1.08069 67.6888 1.08069C67.2485 1.08069 66.8734 1.14592 66.8734 1.24377C66.8734 1.32532 66.5146 1.40686 66.058 1.40686C65.6177 1.40686 65.2426 1.47209 65.2426 1.56995C65.2426 1.6678 64.8022 1.73303 64.264 1.73303C63.7259 1.73303 63.2855 1.79827 63.2855 1.89612C63.2855 1.97766 62.8941 2.0592 62.4049 2.0592C61.9156 2.0592 61.459 2.12444 61.41 2.22229C61.3611 2.30383 60.9534 2.38537 60.4968 2.38537C60.0564 2.38537 59.6976 2.45061 59.6976 2.54846C59.6976 2.64631 59.241 2.71155 58.6539 2.71155C58.0668 2.71155 57.5449 2.77678 57.496 2.87463C57.447 2.95618 56.9578 3.03772 56.4196 3.03772C55.8814 3.03772 55.4574 3.10295 55.4574 3.2008C55.4574 3.29866 55.0334 3.36389 54.4952 3.36389C53.957 3.36389 53.4677 3.42912 53.4188 3.52698C53.3699 3.60852 52.8806 3.69006 52.3588 3.69006C51.8369 3.69006 51.3476 3.7553 51.2987 3.85315C51.2498 3.93469 50.7605 4.01623 50.2223 4.01623C49.6842 4.01623 49.2601 4.08147 49.2601 4.17932C49.2601 4.27717 48.8361 4.34241 48.2979 4.34241C47.7597 4.34241 47.2705 4.40764 47.2216 4.50549C47.1726 4.58704 46.716 4.66858 46.2267 4.66858C45.7375 4.66858 45.3461 4.73381 45.3461 4.83166C45.3461 4.91321 45.1667 4.99475 44.9384 4.99475C44.4654 4.99475 43.0629 6.28313 43.0629 6.70715C43.0629 6.83762 42.9976 6.95178 42.8998 6.95178C42.8182 6.95178 42.7367 7.09856 42.7367 7.27795C42.7367 7.45735 42.6715 7.60413 42.5736 7.60413C42.4758 7.60413 42.4105 8.30539 42.4105 9.38176C42.4105 10.4092 42.4758 11.2083 42.5736 11.2736C42.6715 11.3225 42.7367 11.5508 42.7367 11.7791C42.7367 11.9911 42.8182 12.1705 42.8998 12.1705C42.9976 12.1705 43.0629 12.3173 43.0629 12.4967C43.0629 12.6761 43.1444 12.8229 43.226 12.8229C43.3238 12.8229 43.389 13.0349 43.389 13.3121C43.389 13.5731 43.4706 13.8014 43.5521 13.8014C43.65 13.8014 43.7152 13.9482 43.7152 14.1276C43.7152 14.307 43.7968 14.4537 43.8783 14.4537C43.9761 14.4537 44.0414 14.6657 44.0414 14.943C44.0414 15.2039 44.1229 15.4323 44.2045 15.4323C44.3023 15.4323 44.3676 15.6116 44.3676 15.8237C44.3676 16.052 44.4491 16.2803 44.5306 16.3292C44.6285 16.3781 44.6937 16.5739 44.6937 16.7532C44.6937 17.0468 44.5469 17.0631 41.4483 17.0631C39.4424 17.0631 38.154 17.1283 38.0887 17.2262C38.0398 17.3077 37.8604 17.3893 37.681 17.3893C37.3385 17.3893 36.2133 18.4656 36.2133 18.7918C36.2133 18.9223 36.148 19.0201 36.0502 19.0201C35.9686 19.0201 35.8871 19.1669 35.8871 19.3463C35.8871 19.5257 35.8219 19.6725 35.724 19.6725C35.6425 19.6725 35.5609 19.8845 35.5609 20.1454C35.5609 20.4227 35.4957 20.6836 35.3978 20.7325C35.3163 20.7815 35.2347 21.3033 35.2347 21.8741C35.2347 22.4449 35.3163 22.9668 35.3978 23.0157C35.4957 23.0647 35.5609 23.3745 35.5609 23.6844C35.5609 23.9943 35.6425 24.2389 35.724 24.2389C35.8219 24.2389 35.8871 24.3857 35.8871 24.5651C35.8871 24.7445 35.9686 24.8912 36.0502 24.8912C36.148 24.8912 36.2133 25.0054 36.2133 25.1359C36.2133 25.7393 38.2355 27.1744 39.0836 27.1744C39.2956 27.1744 39.475 27.2397 39.475 27.3375C39.475 27.4191 39.7685 27.5006 40.1273 27.5006C40.4861 27.5006 40.7797 27.5658 40.7797 27.6637C40.7797 27.7452 41.1058 27.8268 41.4972 27.8268C41.905 27.8268 42.2801 27.892 42.329 27.9899C42.3779 28.0714 42.9324 28.153 43.5684 28.153C44.2045 28.153 44.6937 28.2182 44.6937 28.316C44.6937 28.4139 46.2104 28.4791 48.934 28.4791C51.6575 28.4791 53.1742 28.4139 53.1742 28.316C53.1742 28.2182 53.957 28.153 55.1965 28.153C56.387 28.153 57.2677 28.0877 57.3329 27.9899C57.3818 27.892 58.1483 27.8268 59.0616 27.8268C60.0238 27.8268 60.6761 27.7615 60.6761 27.6637C60.6761 27.5658 61.2796 27.5006 62.1439 27.5006C63.0083 27.5006 63.6117 27.4354 63.6117 27.3375C63.6117 27.2397 65.0469 27.1744 67.591 27.1744C70.0862 27.1744 71.6192 27.1092 71.6844 27.0114C71.7497 26.9135 73.2011 26.8483 75.517 26.8483C77.8328 26.8483 79.2843 26.783 79.3495 26.6852C79.3984 26.5873 79.9855 26.5221 80.6542 26.5221C81.3228 26.5221 81.9099 26.4406 81.9589 26.359C82.0078 26.2612 82.3829 26.1959 82.7906 26.1959C83.182 26.1959 83.5082 26.1144 83.5082 26.0328C83.5082 25.935 83.8017 25.8698 84.1605 25.8698C84.5193 25.8698 84.8129 25.7882 84.8129 25.7067C84.8129 25.6088 85.0412 25.5436 85.3021 25.5436C85.5794 25.5436 85.7914 25.462 85.7914 25.3805C85.7914 25.2826 85.9382 25.2174 86.1176 25.2174C86.297 25.2174 86.4437 25.1359 86.4437 25.0543C86.4437 24.9565 86.6394 24.8912 86.8678 24.8912C87.1124 24.8912 87.4222 24.7608 87.569 24.5977C87.7158 24.4346 87.9604 24.2552 88.1235 24.19C88.2703 24.141 88.4008 23.9943 88.4008 23.8801C88.4008 23.7496 88.5475 23.5539 88.7269 23.4235C88.9063 23.293 89.0531 23.0647 89.0531 22.9016C89.0531 22.7385 89.1346 22.608 89.2162 22.608C89.314 22.608 89.3793 22.3634 89.3793 22.0535C89.3793 21.7437 89.4608 21.4338 89.5424 21.3849C89.6402 21.336 89.7054 21.0424 89.7054 20.7325C89.7054 20.4227 89.6402 20.1291 89.5424 20.0802C89.4608 20.0313 89.3793 19.6888 89.3793 19.33C89.3793 18.9875 89.314 18.694 89.2162 18.694C89.1346 18.694 89.0531 18.5146 89.0531 18.3026C89.0531 17.8785 87.6343 16.3129 86.9004 15.9378C86.6394 15.8073 86.4437 15.6443 86.4437 15.5627C86.4437 15.4975 86.2317 15.4323 85.9545 15.4323C85.6935 15.4323 85.4652 15.3507 85.4652 15.2692C85.4652 15.1713 85.3184 15.1061 85.139 15.1061C84.9596 15.1061 84.8129 15.0245 84.8129 14.943C84.8129 14.8451 84.4541 14.7799 83.9974 14.7799C83.5571 14.7799 83.182 14.6984 83.182 14.6168C83.182 14.519 82.5786 14.4537 81.7142 14.4537H80.2465V13.9645C80.2465 13.6872 80.328 13.4752 80.4095 13.4752C80.5074 13.4752 80.5726 11.6813 80.5726 8.41955C80.5726 5.15784 80.5074 3.36389 80.4095 3.36389C80.328 3.36389 80.2465 3.15188 80.2465 2.90725C80.2465 2.64631 80.116 2.35276 79.9203 2.22229C79.7409 2.09182 79.5941 1.87981 79.5941 1.76565C79.5941 1.4884 78.4688 0.428343 78.1916 0.428343C78.0774 0.428343 77.9633 0.330492 77.9306 0.216332C77.8654 0.0695544 77.1968 0.0206286 75.3376 0.00431999C73.9513 -0.0119886 72.5162 0.0206286 72.1411 0.0532458Z" fill="#011532"/>
<path d="M110.336 15.2691C110.287 15.3507 109.879 15.4322 109.423 15.4322C108.982 15.4322 108.623 15.4975 108.623 15.5953C108.623 15.6769 108.33 15.7584 107.971 15.7584C107.612 15.7584 107.319 15.8236 107.319 15.9215C107.319 16.003 107.025 16.0846 106.666 16.0846C106.308 16.0846 106.014 16.1498 106.014 16.2477C106.014 16.3292 105.802 16.4107 105.525 16.4107C105.264 16.4107 105.036 16.476 105.036 16.5738C105.036 16.6554 104.856 16.7369 104.644 16.7369C104.416 16.7369 104.187 16.8022 104.139 16.9C104.09 16.9815 103.894 17.0631 103.715 17.0631C103.551 17.0631 103.405 17.1283 103.405 17.2262C103.405 17.3077 103.258 17.3893 103.078 17.3893C102.899 17.3893 102.752 17.4545 102.752 17.5524C102.752 17.6339 102.606 17.7154 102.426 17.7154C102.247 17.7154 102.1 17.7807 102.1 17.8785C102.1 17.9601 101.953 18.0416 101.774 18.0416C101.594 18.0416 101.448 18.1068 101.448 18.2047C101.448 18.2862 101.301 18.3678 101.121 18.3678C100.942 18.3678 100.795 18.433 100.795 18.5309C100.795 18.6124 100.648 18.694 100.469 18.694C100.29 18.694 100.143 18.7592 100.143 18.857C100.143 18.9386 100.029 19.0201 99.8983 19.0201C99.7678 19.0201 99.4906 19.118 99.2786 19.2158C98.6915 19.5583 97.2074 21.0913 97.2074 21.3686C97.2074 21.5153 97.1421 21.6295 97.0443 21.6295C96.9627 21.6295 96.8812 21.8415 96.8812 22.1188C96.8812 22.3797 96.816 22.608 96.7181 22.608C96.6203 22.608 96.555 23.0647 96.555 23.6518C96.555 24.2389 96.6366 24.7607 96.7181 24.8097C96.816 24.8586 96.8812 25.1195 96.8812 25.3968C96.8812 25.6577 96.9627 25.8697 97.0443 25.8697C97.1421 25.8697 97.2074 25.9839 97.2074 26.1144C97.2074 26.3427 97.5009 26.9787 97.6966 27.1744C97.7456 27.2233 97.9902 27.5332 98.2348 27.8594C98.4794 28.2019 98.7893 28.4791 98.8872 28.4791C99.0013 28.4791 99.197 28.6259 99.3275 28.8053C99.458 28.9847 99.6863 29.1315 99.8494 29.1315C100.012 29.1315 100.143 29.1967 100.143 29.2945C100.143 29.3761 100.436 29.4576 100.795 29.4576C101.154 29.4576 101.448 29.5229 101.448 29.6207C101.448 29.7023 101.806 29.7838 102.247 29.7838C102.703 29.7838 103.111 29.7023 103.16 29.6207C103.209 29.5229 103.519 29.4576 103.829 29.4576C104.139 29.4576 104.383 29.3761 104.383 29.2945C104.383 29.1967 104.611 29.1315 104.872 29.1315C105.15 29.1315 105.362 29.0499 105.362 28.9684C105.362 28.8705 105.737 28.8053 106.177 28.8053C106.634 28.8053 106.993 28.7237 106.993 28.6422C106.993 28.5443 107.319 28.4791 107.71 28.4791C108.118 28.4791 108.493 28.3976 108.542 28.316C108.591 28.2182 108.966 28.1529 109.357 28.1529C109.749 28.1529 110.124 28.0714 110.173 27.9899C110.222 27.892 110.597 27.8268 110.988 27.8268C111.38 27.8268 111.755 27.7452 111.804 27.6637C112.081 27.2233 112.211 27.6311 112.211 28.8705C112.211 29.637 112.293 30.3057 112.374 30.3546C112.472 30.4198 112.537 31.4636 112.537 32.964C112.537 34.4644 112.603 35.5081 112.701 35.5734C112.798 35.6223 112.864 36.3888 112.864 37.3021C112.864 38.2643 112.929 38.9166 113.027 38.9166C113.125 38.9166 113.19 39.52 113.19 40.3844C113.19 41.2487 113.255 41.8522 113.353 41.8522C113.451 41.8522 113.516 42.4556 113.516 43.3199C113.516 44.1843 113.581 44.7877 113.679 44.7877C113.777 44.7877 113.842 45.3911 113.842 46.2555C113.842 47.1198 113.907 47.7233 114.005 47.7233C114.103 47.7233 114.168 48.3267 114.168 49.191C114.168 50.0554 114.234 50.6588 114.331 50.6588C114.429 50.6588 114.494 51.2622 114.494 52.1266C114.494 52.9909 114.56 53.5944 114.658 53.5944C114.755 53.5944 114.821 54.1652 114.821 54.9643C114.821 55.7308 114.902 56.3994 114.984 56.4484C115.082 56.5136 115.147 57.3127 115.147 58.3402C115.147 59.4165 115.212 60.1178 115.31 60.1178C115.408 60.1178 115.473 61.1126 115.473 62.7924C115.473 64.407 115.538 65.5159 115.636 65.5812C115.734 65.6464 115.799 68.5167 115.799 73.6539C115.799 78.7911 115.734 81.6614 115.636 81.7267C115.538 81.7919 115.473 83.488 115.473 86.3094C115.473 89.1797 115.408 90.7779 115.31 90.7779C115.212 90.7779 115.147 92.0826 115.147 94.3658C115.147 96.649 115.082 97.9537 114.984 97.9537C114.886 97.9537 114.821 99.0953 114.821 101.036C114.821 102.928 114.755 104.167 114.658 104.233C114.56 104.298 114.494 105.505 114.494 107.331C114.494 109.158 114.429 110.365 114.331 110.43C114.234 110.495 114.168 111.734 114.168 113.61C114.168 115.485 114.103 116.725 114.005 116.79C113.907 116.855 113.842 119.155 113.842 123.151C113.842 127.146 113.907 129.446 114.005 129.511C114.103 129.576 114.168 131.631 114.168 135.154C114.168 138.725 114.103 140.682 114.005 140.682C113.907 140.682 113.842 141.172 113.842 141.824C113.842 142.476 113.777 142.965 113.679 142.965C113.598 142.965 113.516 143.324 113.516 143.781C113.516 144.221 113.451 144.596 113.353 144.596C113.271 144.596 113.19 144.808 113.19 145.086C113.19 145.347 113.125 145.575 113.027 145.575C112.945 145.575 112.864 145.787 112.864 146.064C112.864 146.325 112.798 146.553 112.701 146.553C112.619 146.553 112.537 146.7 112.537 146.88C112.537 147.059 112.472 147.206 112.374 147.206C112.293 147.206 112.211 147.32 112.211 147.45C112.211 147.744 111.918 148.282 111.526 148.739C111.363 148.918 111.233 149.13 111.233 149.195C111.233 149.44 109.129 151.446 108.868 151.446C108.738 151.446 108.623 151.495 108.623 151.56C108.623 151.707 107.824 152.098 107.531 152.098C107.417 152.098 107.319 152.163 107.319 152.261C107.319 152.343 107.107 152.424 106.829 152.424C106.569 152.424 106.34 152.49 106.34 152.588C106.34 152.669 106.128 152.751 105.851 152.751C105.59 152.751 105.362 152.816 105.362 152.914C105.362 152.995 105.003 153.077 104.546 153.077C104.106 153.077 103.731 153.142 103.731 153.24C103.731 153.321 103.405 153.403 103.013 153.403C102.606 153.403 102.23 153.468 102.181 153.566C102.133 153.648 101.725 153.729 101.285 153.729C100.844 153.729 100.436 153.794 100.388 153.892C100.339 153.974 99.8168 154.055 99.2296 154.055C98.6425 154.055 98.1859 154.121 98.1859 154.218C98.1859 154.316 97.5825 154.381 96.7181 154.381C95.8538 154.381 95.2503 154.447 95.2503 154.545C95.2503 154.642 94.6795 154.708 93.8804 154.708C93.1139 154.708 92.4453 154.773 92.3963 154.871C92.3311 154.969 91.1406 155.034 89.3793 155.034C87.6179 155.034 86.4274 155.099 86.3622 155.197C86.2317 155.425 76.0551 155.425 75.9247 155.197C75.8594 155.099 74.4243 155.034 72.1574 155.034C69.8252 155.034 68.5043 154.969 68.5043 154.871C68.5043 154.773 67.5257 154.708 65.9112 154.708C64.3456 154.708 63.2692 154.642 63.204 154.545C63.1387 154.447 62.1928 154.381 60.9208 154.381C59.6487 154.381 58.7028 154.316 58.6376 154.218C58.5723 154.121 57.6264 154.055 56.3543 154.055C55.0823 154.055 54.1364 153.99 54.0711 153.892C54.0059 153.794 53.06 153.729 51.7879 153.729C50.5159 153.729 49.57 153.664 49.5047 153.566C49.3743 153.338 37.8441 153.338 37.8441 153.566C37.8441 153.664 36.784 153.729 35.0064 153.729C33.2777 153.729 32.1198 153.794 32.0545 153.892C31.9241 154.121 19.9536 154.121 19.8231 153.892C19.7742 153.794 19.1055 153.729 18.339 153.729C17.5399 153.729 16.9691 153.664 16.9691 153.566C16.9691 153.468 16.6755 153.403 16.3167 153.403C15.958 153.403 15.6644 153.321 15.6644 153.24C15.6644 153.142 15.5502 153.077 15.4198 153.077C15.0936 153.077 14.0335 152.017 14.0335 151.691C14.0335 151.56 13.9683 151.446 13.8705 151.446C13.7889 151.446 13.7074 151.299 13.7074 151.12C13.7074 150.94 13.6421 150.794 13.5443 150.794C13.4627 150.794 13.3812 150.647 13.3812 150.467C13.3812 150.288 13.316 150.141 13.2181 150.141C13.1366 150.141 13.055 149.913 13.055 149.652C13.055 149.375 12.9898 149.163 12.8919 149.163C12.8104 149.163 12.7289 148.934 12.7289 148.673C12.7289 148.396 12.6636 148.184 12.5658 148.184C12.4679 148.184 12.4027 147.744 12.4027 147.206C12.4027 146.667 12.3375 146.227 12.2396 146.227C12.1417 146.227 12.0765 145.607 12.0765 144.694C12.0765 143.83 12.0113 143.096 11.9134 143.047C11.6851 142.917 11.6851 135.186 11.9134 135.056C12.0113 134.991 12.0765 133.882 12.0765 132.283C12.0765 130.685 12.1417 129.576 12.2396 129.511C12.3375 129.446 12.4027 128.614 12.4027 127.554C12.4027 126.494 12.4679 125.662 12.5658 125.597C12.6636 125.532 12.7289 124.732 12.7289 123.721C12.7289 122.71 12.7941 121.911 12.8919 121.846C12.9898 121.797 13.055 120.998 13.055 120.052C13.055 119.106 13.1203 118.307 13.2181 118.258C13.4464 118.127 13.4464 101.754 13.2181 101.623C13.1203 101.558 13.055 100.123 13.055 97.8722C13.055 95.6216 12.9898 94.1864 12.8919 94.1212C12.7941 94.056 12.7289 92.8654 12.7289 91.1041C12.7289 89.3428 12.6636 88.1523 12.5658 88.087C12.4679 88.0218 12.4027 86.8313 12.4027 85.0699C12.4027 83.3086 12.3375 82.1181 12.2396 82.0528C12.1417 81.9876 12.0765 80.3404 12.0765 77.6495C12.0765 74.9586 12.0113 73.3114 11.9134 73.2462C11.8156 73.181 11.7503 71.4523 11.7503 68.582C11.7503 65.6627 11.6851 64.0319 11.5873 64.0319C11.3589 64.0319 11.3589 52.3386 11.5873 52.2081C11.6851 52.1429 11.7503 51.1807 11.7503 49.8434C11.7503 48.5061 11.8156 47.5439 11.9134 47.4786C12.0113 47.4297 12.0765 46.9404 12.0765 46.4186C12.0765 45.8967 12.1581 45.4074 12.2396 45.3585C12.3211 45.3096 12.4027 44.9019 12.4027 44.4615C12.4027 44.0212 12.4842 43.6135 12.5658 43.5646C12.6636 43.5156 12.7289 43.1732 12.7289 42.8144C12.7289 42.4719 12.8104 42.1783 12.8919 42.1783C12.9898 42.1783 13.055 41.9663 13.055 41.7054C13.055 41.4281 13.1366 41.1672 13.2181 41.1183C13.316 41.0694 13.3812 40.841 13.3812 40.629C13.3812 40.417 13.4627 40.1887 13.5443 40.1398C13.6421 40.0908 13.7074 39.9114 13.7074 39.7484C13.7074 39.4222 14.6859 37.3999 14.8979 37.3184C14.9631 37.2858 15.0121 37.139 15.0121 36.9759C15.0121 36.8291 15.1588 36.6008 15.3382 36.4703C15.5176 36.3399 15.6644 36.1442 15.6644 36.0463C15.6644 35.7854 17.0996 34.3502 17.3605 34.3502C17.4584 34.3502 17.6541 34.2034 17.7845 34.024C17.915 33.8446 18.1433 33.6979 18.3064 33.6979C18.4695 33.6979 18.6 33.6163 18.6 33.5348C18.6 33.4369 18.7467 33.3717 18.9098 33.3717C19.0892 33.3717 19.2849 33.2901 19.3338 33.2086C19.3828 33.1107 19.7579 33.0455 20.1656 33.0455C20.557 33.0455 21.0299 32.9477 21.2093 32.8498C21.4703 32.6867 21.6007 32.6867 21.8617 32.8498C22.2531 33.0781 23.2642 33.1107 23.411 32.8824C23.4599 32.7846 23.7209 32.7193 23.9981 32.7193C24.259 32.7193 24.471 32.6378 24.471 32.5563C24.471 32.4584 24.5852 32.3932 24.7157 32.3932C25.0418 32.3932 25.7757 31.6593 25.7757 31.3331C25.7757 31.2026 25.8573 31.0885 25.9388 31.0885C26.0367 31.0885 26.1019 30.9417 26.1019 30.7623C26.1019 30.5829 26.1834 30.4361 26.265 30.4361C26.3628 30.4361 26.4281 29.7838 26.4281 28.8053C26.4281 27.8268 26.3628 27.1744 26.265 27.1744C26.1834 27.1744 26.1019 26.995 26.1019 26.7993C26.1019 26.3427 24.7972 24.8912 24.4058 24.8912C24.259 24.8912 24.1449 24.8097 24.1449 24.7281C24.1449 24.6303 23.9981 24.565 23.8187 24.565C23.6393 24.565 23.4925 24.4835 23.4925 24.402C23.4925 24.3041 23.3458 24.2389 23.1827 24.2389C23.0033 24.2389 22.8076 24.1573 22.7586 24.0758C22.7097 23.9779 22.4814 23.9127 22.2531 23.9127C22.0411 23.9127 21.8617 23.8312 21.8617 23.7496C21.8617 23.6518 21.6497 23.5865 21.3724 23.5865C21.1115 23.5865 20.8832 23.505 20.8832 23.4234C20.8832 23.3256 20.6385 23.2604 20.3287 23.2604C20.0188 23.2604 19.7089 23.1788 19.66 23.0973C19.6111 22.9994 19.3175 22.9342 19.0077 22.9342C18.6978 22.9342 18.4042 22.8526 18.3553 22.7711C18.3064 22.6732 17.8987 22.608 17.442 22.608C17.0017 22.608 16.6429 22.5265 16.6429 22.4449C16.6429 22.3471 15.4524 22.2818 13.3812 22.2818C11.31 22.2818 10.1195 22.3471 10.1195 22.4449C10.1195 22.5265 9.97271 22.608 9.79331 22.608C9.61392 22.608 9.46714 22.6732 9.46714 22.7711C9.46714 22.8526 9.35298 22.9342 9.22251 22.9342C8.91265 22.9342 7.83628 23.9779 7.83628 24.2715C7.83628 24.402 7.6895 24.5977 7.51011 24.7281C7.33071 24.8586 7.18394 25.0869 7.18394 25.25C7.18394 25.3968 7.10239 25.5762 7.02085 25.6251C6.93931 25.674 6.85776 25.9024 6.85776 26.1307C6.85776 26.3427 6.79253 26.5221 6.69468 26.5221C6.61314 26.5221 6.53159 26.7341 6.53159 27.0113C6.53159 27.2723 6.46636 27.5006 6.36851 27.5006C6.28696 27.5006 6.20542 27.7126 6.20542 27.9899C6.20542 28.2508 6.14019 28.4791 6.04233 28.4791C5.96079 28.4791 5.87925 28.6911 5.87925 28.9684C5.87925 29.2293 5.81401 29.4576 5.71616 29.4576C5.63462 29.4576 5.55308 29.6696 5.55308 29.9469C5.55308 30.2078 5.48784 30.4361 5.38999 30.4361C5.30845 30.4361 5.2269 30.6482 5.2269 30.9254C5.2269 31.1863 5.16167 31.4147 5.06382 31.4147C4.98228 31.4147 4.90073 31.6267 4.90073 31.9039C4.90073 32.1649 4.8355 32.3932 4.73765 32.3932C4.6561 32.3932 4.57456 32.6867 4.57456 33.0455C4.57456 33.4043 4.50933 33.6979 4.41147 33.6979C4.32993 33.6979 4.24839 33.9914 4.24839 34.3502C4.24839 34.709 4.18315 35.0026 4.0853 35.0026C4.00376 35.0026 3.92222 35.2146 3.92222 35.4755C3.92222 35.7527 3.85698 36.0137 3.75913 36.0626C3.67759 36.1115 3.59605 36.4214 3.59605 36.7313C3.59605 37.0411 3.53081 37.2858 3.43296 37.2858C3.35142 37.2858 3.26987 37.5793 3.26987 37.9381C3.26987 38.2969 3.20464 38.5904 3.10679 38.5904C3.02524 38.5904 2.9437 38.9492 2.9437 39.3896C2.9437 39.8462 2.87847 40.2539 2.78062 40.3028C2.69907 40.3518 2.61753 40.7269 2.61753 41.1183C2.61753 41.5097 2.53599 41.8848 2.45444 41.9337C2.3729 41.9826 2.29136 42.3903 2.29136 42.8307C2.29136 43.271 2.20981 43.6787 2.12827 43.7277C2.03042 43.7766 1.96519 44.1843 1.96519 44.6409C1.96519 45.0813 1.89995 45.4401 1.8021 45.4401C1.70425 45.4401 1.63901 45.9456 1.63901 46.6469C1.63901 47.3155 1.55747 47.919 1.47593 47.9679C1.37808 48.0168 1.31284 48.5713 1.31284 49.2073C1.31284 49.8434 1.24761 50.3326 1.14976 50.3326C1.0519 50.3326 0.98667 50.9361 0.98667 51.8004C0.98667 52.6648 0.921436 53.2682 0.823584 53.2682C0.725732 53.2682 0.660498 54.0021 0.660498 55.1274C0.660498 56.2037 0.595264 57.0355 0.497412 57.1007C0.399561 57.1659 0.334326 58.3565 0.334326 60.1178C0.334326 61.8791 0.269092 63.0696 0.17124 63.1349C-0.0570801 63.2653 -0.0570801 80.7808 0.17124 80.9112C0.269092 80.9765 0.334326 82.591 0.334326 85.233C0.334326 87.875 0.399561 89.4896 0.497412 89.5548C0.595264 89.62 0.660498 91.1041 0.660498 93.4852C0.660498 95.9152 0.725732 97.3014 0.823584 97.3014C0.921436 97.3014 0.98667 98.6061 0.98667 100.889C0.98667 103.172 1.0519 104.477 1.14976 104.477C1.24761 104.477 1.31284 106.532 1.31284 110.332C1.31284 114.067 1.37808 116.236 1.47593 116.301C1.70425 116.431 1.70425 126.005 1.47593 126.005C1.37808 126.005 1.31284 127.391 1.31284 129.821C1.31284 132.202 1.24761 133.686 1.14976 133.751C0.921436 133.882 0.921436 145.249 1.14976 145.249C1.24761 145.249 1.31284 145.852 1.31284 146.716C1.31284 147.581 1.37808 148.184 1.47593 148.184C1.57378 148.184 1.63901 148.543 1.63901 149C1.63901 149.44 1.72056 149.815 1.8021 149.815C1.89995 149.815 1.96519 150.109 1.96519 150.467C1.96519 150.826 2.04673 151.12 2.12827 151.12C2.22612 151.12 2.29136 151.413 2.29136 151.772C2.29136 152.131 2.3729 152.424 2.45444 152.424C2.5523 152.424 2.61753 152.636 2.61753 152.914C2.61753 153.175 2.69907 153.403 2.78062 153.403C2.87847 153.403 2.9437 153.582 2.9437 153.794C2.9437 154.023 3.02524 154.251 3.10679 154.3C3.20464 154.349 3.26987 154.545 3.26987 154.724C3.26987 154.887 3.35142 155.034 3.43296 155.034C3.53081 155.034 3.59605 155.246 3.59605 155.507C3.59605 155.768 3.64497 156.012 3.72651 156.045C3.79175 156.061 4.02007 156.436 4.23208 156.877C4.44409 157.301 4.68872 157.643 4.77026 157.643C4.8355 157.643 4.90073 157.774 4.90073 157.937C4.90073 158.1 5.04751 158.328 5.2269 158.459C5.4063 158.589 5.55308 158.801 5.55308 158.915C5.55308 159.046 5.7814 159.356 6.04233 159.6C6.31958 159.845 6.53159 160.138 6.53159 160.253C6.53159 160.465 8.61909 162.536 8.8311 162.536C8.91265 162.536 9.2062 162.764 9.49976 163.025C9.777 163.302 10.1032 163.514 10.2173 163.514C10.3478 163.514 10.4457 163.58 10.4457 163.677C10.4457 163.759 10.5924 163.84 10.7718 163.84C10.9512 163.84 11.098 163.906 11.098 164.004C11.098 164.085 11.2448 164.167 11.4242 164.167C11.6036 164.167 11.7503 164.232 11.7503 164.33C11.7503 164.411 11.9787 164.493 12.2396 164.493C12.5168 164.493 12.7289 164.558 12.7289 164.656C12.7289 164.737 12.9083 164.819 13.1203 164.819C13.3486 164.819 13.5769 164.901 13.6258 164.982C13.6748 165.08 13.9357 165.145 14.2129 165.145C14.4739 165.145 14.6859 165.21 14.6859 165.308C14.6859 165.39 14.9794 165.471 15.3219 165.471C15.6807 165.471 16.0232 165.537 16.0721 165.634C16.121 165.716 16.6103 165.797 17.1322 165.797C17.6541 165.797 18.1433 165.863 18.1922 165.961C18.2575 166.058 19.4643 166.124 21.2909 166.124C23.1174 166.124 24.3243 166.189 24.3895 166.287C24.52 166.499 26.8684 166.499 26.9989 166.287C27.0641 166.189 28.1731 166.124 29.7713 166.124C31.3696 166.124 32.4786 166.058 32.5438 165.961C32.5927 165.863 33.3918 165.797 34.3377 165.797C35.2836 165.797 36.0828 165.732 36.1317 165.634C36.1806 165.537 36.9797 165.471 37.9256 165.471C38.8715 165.471 39.6707 165.406 39.7196 165.308C39.7848 165.21 40.5839 165.145 41.6114 165.145C42.6877 165.145 43.389 165.08 43.389 164.982C43.389 164.754 52.1467 164.754 52.2772 164.982C52.3424 165.08 53.2231 165.145 54.3973 165.145C55.5715 165.145 56.4522 165.21 56.5174 165.308C56.5827 165.406 57.4144 165.471 58.4745 165.471C59.5345 165.471 60.3663 165.537 60.4315 165.634C60.4967 165.732 61.3285 165.797 62.4048 165.797C63.5301 165.797 64.264 165.863 64.264 165.961C64.264 166.058 65.0794 166.124 66.3841 166.124C67.6888 166.124 68.5043 166.189 68.5043 166.287C68.5043 166.385 69.2544 166.45 70.4287 166.45C71.7497 166.45 72.4183 166.515 72.5488 166.662C72.8586 166.955 98.3653 166.955 98.4631 166.646C98.5121 166.515 98.9361 166.45 99.8168 166.45C100.518 166.45 101.154 166.368 101.203 166.287C101.252 166.189 101.627 166.124 102.035 166.124C102.426 166.124 102.752 166.042 102.752 165.961C102.752 165.863 103.127 165.797 103.568 165.797C104.024 165.797 104.383 165.716 104.383 165.634C104.383 165.537 104.709 165.471 105.101 165.471C105.508 165.471 105.884 165.39 105.932 165.308C105.981 165.21 106.324 165.145 106.683 165.145C107.025 165.145 107.319 165.064 107.319 164.982C107.319 164.884 107.547 164.819 107.808 164.819C108.085 164.819 108.297 164.737 108.297 164.656C108.297 164.558 108.526 164.493 108.786 164.493C109.064 164.493 109.276 164.411 109.276 164.33C109.276 164.232 109.504 164.167 109.765 164.167C110.042 164.167 110.254 164.085 110.254 164.004C110.254 163.906 110.401 163.84 110.58 163.84C110.76 163.84 110.907 163.759 110.907 163.677C110.907 163.58 111.135 163.514 111.396 163.514C111.673 163.514 111.885 163.433 111.885 163.351C111.885 163.253 112.032 163.188 112.211 163.188C112.391 163.188 112.537 163.107 112.537 163.025C112.537 162.927 112.684 162.862 112.864 162.862C113.043 162.862 113.19 162.78 113.19 162.699C113.19 162.601 113.304 162.536 113.434 162.536C113.581 162.536 113.842 162.389 114.038 162.21C114.234 162.03 114.494 161.883 114.609 161.883C114.723 161.883 114.821 161.802 114.821 161.72C114.821 161.622 114.951 161.557 115.114 161.557C115.277 161.557 115.506 161.41 115.636 161.231C115.767 161.052 115.979 160.905 116.093 160.905C116.223 160.905 116.533 160.677 116.778 160.416C117.022 160.138 117.316 159.926 117.414 159.926C117.626 159.926 120.039 157.513 120.039 157.301C120.039 157.203 120.268 156.909 120.529 156.665C120.806 156.42 121.018 156.11 121.018 155.98C121.018 155.866 121.165 155.654 121.344 155.523C121.523 155.393 121.67 155.164 121.67 155.001C121.67 154.838 121.752 154.708 121.833 154.708C121.931 154.708 121.996 154.561 121.996 154.381C121.996 154.202 122.078 154.055 122.16 154.055C122.257 154.055 122.323 153.909 122.323 153.729C122.323 153.55 122.404 153.403 122.486 153.403C122.584 153.403 122.649 153.256 122.649 153.077C122.649 152.897 122.73 152.751 122.812 152.751C122.91 152.751 122.975 152.571 122.975 152.359C122.975 152.131 123.056 151.903 123.138 151.854C123.236 151.805 123.301 151.544 123.301 151.267C123.301 151.006 123.383 150.794 123.464 150.794C123.562 150.794 123.627 150.565 123.627 150.304C123.627 150.027 123.709 149.815 123.79 149.815C123.888 149.815 123.953 149.489 123.953 149.097C123.953 148.69 124.035 148.315 124.117 148.266C124.214 148.217 124.28 147.809 124.28 147.369C124.28 146.928 124.361 146.521 124.443 146.472C124.541 146.423 124.606 145.966 124.606 145.477C124.606 144.988 124.687 144.596 124.769 144.596C124.867 144.596 124.932 144.156 124.932 143.618C124.932 143.08 124.997 142.639 125.095 142.639C125.193 142.639 125.258 142.052 125.258 141.188C125.258 140.372 125.34 139.671 125.421 139.622C125.519 139.573 125.584 138.839 125.584 137.975C125.584 137.062 125.65 136.442 125.747 136.442C125.845 136.442 125.911 135.366 125.911 133.523C125.911 131.745 125.976 130.555 126.074 130.489C126.188 130.424 126.237 123.77 126.237 111.082C126.237 98.3941 126.286 91.7402 126.4 91.6749C126.498 91.6097 126.563 89.669 126.563 86.3746C126.563 83.0803 126.628 81.1396 126.726 81.0743C126.84 81.0091 126.889 77.1603 126.889 70.066C126.889 62.9718 126.84 59.123 126.726 59.0577C126.628 58.9925 126.563 57.9161 126.563 56.3668C126.563 54.8175 126.498 53.7411 126.4 53.6759C126.302 53.627 126.237 52.8931 126.237 52.045C126.237 51.197 126.171 50.4631 126.074 50.4142C125.992 50.3653 125.911 49.7292 125.911 49.0116C125.911 48.2614 125.845 47.7233 125.747 47.7233C125.65 47.7233 125.584 47.1851 125.584 46.4186C125.584 45.6521 125.519 45.1139 125.421 45.1139C125.323 45.1139 125.258 44.6083 125.258 43.907C125.258 43.2384 125.193 42.635 125.095 42.5861C125.014 42.5371 124.932 41.9826 124.932 41.3629C124.932 40.7432 124.867 40.1887 124.769 40.1398C124.687 40.0908 124.606 39.4548 124.606 38.7535C124.606 38.0523 124.541 37.4162 124.443 37.3673C124.361 37.3184 124.28 36.6823 124.28 35.9811C124.28 35.2798 124.214 34.6438 124.117 34.5948C124.019 34.5459 123.953 33.7468 123.953 32.8009C123.953 31.855 123.888 31.0559 123.79 31.0069C123.693 30.9417 123.627 28.7564 123.627 24.9565C123.627 21.1076 123.562 19.0201 123.464 19.0201C123.383 19.0201 123.301 18.7918 123.301 18.5309C123.301 18.2536 123.236 18.0416 123.171 18.0416C123.089 18.0416 122.926 17.8459 122.796 17.585C122.502 17.0142 121.899 16.4107 121.638 16.4107C121.507 16.4107 121.311 16.264 121.181 16.0846C121.051 15.9052 120.822 15.7584 120.659 15.7584C120.496 15.7584 120.366 15.6769 120.366 15.5953C120.366 15.4975 120.154 15.4322 119.876 15.4322C119.615 15.4322 119.387 15.3507 119.387 15.2691C119.387 15.1713 117.789 15.1061 114.919 15.1061C112.097 15.1061 110.401 15.1713 110.336 15.2691Z" fill="#011532"/>
<path d="M67.9335 50.4957C67.8682 50.5936 66.4657 50.6588 64.264 50.6588C62.0624 50.6588 60.6598 50.724 60.5946 50.8219C60.5294 50.9198 59.6161 50.985 58.3929 50.985C57.1698 50.985 56.2565 51.0502 56.1913 51.1481C56.1261 51.2459 55.2454 51.3112 54.0712 51.3112C52.8969 51.3112 52.0163 51.3764 51.9511 51.4742C51.8858 51.5721 51.0215 51.6373 49.9125 51.6373C48.8035 51.6373 47.9391 51.7026 47.8739 51.8004C47.8087 51.8983 46.9769 51.9635 45.9169 51.9635C44.8568 51.9635 44.0251 52.0287 43.9598 52.1266C43.8946 52.2244 43.0629 52.2897 42.0028 52.2897C40.9427 52.2897 40.111 52.3549 40.0458 52.4528C39.9969 52.5506 39.1977 52.6158 38.2355 52.6158C37.2081 52.6158 36.5394 52.6811 36.5394 52.7789C36.5394 52.8605 36.36 52.942 36.1317 52.942C35.8545 52.942 35.4631 53.1866 34.9901 53.6759L34.2562 54.3935V55.6329C34.2562 56.3342 34.3215 56.8561 34.4193 56.8561C34.5172 56.8561 34.5824 56.9702 34.5824 57.117C34.5824 57.4921 35.3978 58.1608 35.8545 58.1608C36.0502 58.1608 36.2133 58.226 36.2133 58.3239C36.2133 58.4217 36.9961 58.4869 38.2355 58.4869C39.4261 58.4869 40.3067 58.5522 40.3719 58.65C40.4372 58.7479 41.6766 58.8131 43.5521 58.8131C45.4276 58.8131 46.6671 58.8783 46.7323 58.9762C46.7975 59.0904 51.5107 59.1393 60.35 59.1393C69.1892 59.1393 73.9024 59.0904 73.9677 58.9762C74.0329 58.8783 75.2723 58.8131 77.1641 58.8131C79.1049 58.8131 80.2465 58.7479 80.2465 58.65C80.2465 58.5522 81.1108 58.4869 82.5297 58.4869C83.9485 58.4869 84.8129 58.4217 84.8129 58.3239C84.8129 58.226 85.0901 58.1608 85.4326 58.1608C85.8566 58.1608 86.1176 58.0629 86.2806 57.8346C86.4111 57.6552 86.6068 57.5084 86.7373 57.5084C87.0308 57.5084 87.4222 57.1007 87.4222 56.7908C87.4222 56.6441 87.5038 56.5299 87.5853 56.5299C87.6832 56.5299 87.7484 56.3831 87.7484 56.22C87.7484 56.0406 87.83 55.8449 87.9115 55.796C88.0094 55.7471 88.0746 55.16 88.0746 54.4913C88.0746 53.8227 88.0094 53.2356 87.9115 53.1866C87.83 53.1377 87.7484 52.942 87.7484 52.7626C87.7484 52.3875 86.3948 50.985 86.036 50.985C85.9055 50.985 85.7914 50.9034 85.7914 50.8219C85.7914 50.724 85.4326 50.6588 84.9923 50.6588C84.5356 50.6588 84.1279 50.5773 84.079 50.4957C84.0137 50.3979 81.1434 50.3326 76.0062 50.3326C70.869 50.3326 67.9987 50.3979 67.9335 50.4957Z" fill="#011532"/>
<path d="M80.8173 63.8688C80.752 63.9666 79.4636 64.0319 77.474 64.0319C75.4844 64.0319 74.196 64.0971 74.1307 64.1949C74.0655 64.2928 72.9891 64.358 71.4235 64.358C69.809 64.358 68.8304 64.4233 68.8304 64.5211C68.8304 64.619 67.803 64.6842 66.0743 64.6842C64.3945 64.6842 63.2692 64.7494 63.204 64.8473C63.1387 64.9451 60.4804 65.0104 55.7836 65.0104C51.0867 65.0104 48.4284 64.9451 48.3632 64.8473C48.2979 64.7494 47.4173 64.6842 46.243 64.6842C45.0688 64.6842 44.1882 64.7494 44.1229 64.8473C44.074 64.9451 43.2749 65.0104 42.329 65.0104C41.3831 65.0104 40.584 65.0756 40.535 65.1735C40.4861 65.255 40.0458 65.3365 39.5565 65.3365C39.0673 65.3365 38.6269 65.4018 38.578 65.4996C38.5291 65.5812 38.2681 65.6627 37.9909 65.6627C37.73 65.6627 37.5179 65.728 37.5179 65.8258C37.5179 65.9073 37.3385 65.9889 37.1102 65.9889C36.6373 65.9889 36.148 66.2335 35.6098 66.7554C35.3163 67.0326 35.2347 67.2936 35.2347 67.9459C35.2347 68.6635 35.3 68.8429 35.8055 69.3322C36.1154 69.642 36.4742 69.903 36.621 69.903C36.7514 69.903 36.8656 69.9682 36.8656 70.066C36.8656 70.1476 37.0124 70.2291 37.1918 70.2291C37.3712 70.2291 37.5179 70.2944 37.5179 70.3922C37.5179 70.4738 37.6647 70.5553 37.8278 70.5553C38.0072 70.5553 38.2029 70.6205 38.2518 70.7184C38.3008 70.7999 38.5617 70.8815 38.8226 70.8815C39.0836 70.8815 39.3445 70.9467 39.3934 71.0446C39.4424 71.1261 39.7033 71.2076 39.9805 71.2076C40.2415 71.2076 40.4535 71.2729 40.4535 71.3707C40.4535 71.4523 40.8286 71.5338 41.2689 71.5338C41.7256 71.5338 42.0844 71.599 42.0844 71.6969C42.0844 71.7948 42.5736 71.86 43.226 71.86C43.8783 71.86 44.3676 71.9252 44.3676 72.0231C44.3676 72.1209 45.4439 72.1862 47.2868 72.1862C49.0644 72.1862 50.255 72.2514 50.3202 72.3492C50.3854 72.4471 52.1957 72.5123 55.2128 72.5123C58.2299 72.5123 60.0401 72.5776 60.1053 72.6754C60.1706 72.7733 63.4486 72.8385 69.4176 72.8385C75.4354 72.8385 78.6156 72.7896 78.6156 72.6754C78.6156 72.5776 79.3658 72.5123 80.5563 72.5123C81.6816 72.5123 82.546 72.4471 82.6112 72.3492C82.6601 72.2514 83.2962 72.1862 83.9974 72.1862C84.6987 72.1862 85.3347 72.1046 85.3837 72.0231C85.4326 71.9252 85.5957 71.86 85.7261 71.86C85.8566 71.86 86.1828 71.6317 86.4763 71.3707C86.7536 71.0935 87.0798 70.8815 87.1939 70.8815C87.3244 70.8815 87.4222 70.7347 87.4222 70.5553C87.4222 70.3759 87.5038 70.2291 87.5853 70.2291C87.6832 70.2291 87.7484 70.0823 87.7484 69.903C87.7484 69.7236 87.83 69.5768 87.9115 69.5768C88.0094 69.5768 88.0746 69.3485 88.0746 69.0875C88.0746 68.8103 88.1561 68.5983 88.2377 68.5983C88.3355 68.5983 88.4008 68.2069 88.4008 67.7176C88.4008 67.2283 88.3355 66.7717 88.2377 66.7228C88.1561 66.6739 88.0746 66.4129 88.0746 66.1357C88.0746 65.8747 88.0094 65.6627 87.9115 65.6627C87.83 65.6627 87.7484 65.5486 87.7484 65.4181C87.7484 65.0919 87.0145 64.358 86.6884 64.358C86.5579 64.358 86.4437 64.2765 86.4437 64.1949C86.4437 64.0971 86.2643 64.0319 86.0523 64.0319C85.824 64.0319 85.5957 63.9503 85.5468 63.8688C85.4815 63.7709 84.5193 63.7057 83.182 63.7057C81.8447 63.7057 80.8825 63.7709 80.8173 63.8688Z" fill="#011532"/>
<path d="M40.6981 77.8942C40.6492 77.9757 40.0458 78.0573 39.3771 78.0573C38.6759 78.0573 38.1703 78.1225 38.1703 78.2203C38.1703 78.3019 38.0561 78.3834 37.9094 78.3834C37.7789 78.3834 37.5506 78.4813 37.4201 78.6117C37.2896 78.7422 37.1918 78.9705 37.1918 79.101C37.1918 79.2478 37.1265 79.3619 37.0287 79.3619C36.9471 79.3619 36.8656 79.7533 36.8656 80.2426C36.8656 80.7319 36.9471 81.1885 37.0287 81.2374C37.1265 81.2864 37.1918 81.4494 37.1918 81.5799C37.1918 81.8572 37.9094 82.6237 38.1703 82.6237C38.2681 82.6237 38.4965 82.7704 38.6922 82.9498C38.8879 83.1292 39.1488 83.276 39.263 83.276C39.3771 83.276 39.475 83.3412 39.475 83.4391C39.475 83.5206 39.6218 83.6022 39.8011 83.6022C39.9805 83.6022 40.1273 83.6674 40.1273 83.7653C40.1273 83.8468 40.2741 83.9283 40.4372 83.9283C40.6166 83.9283 40.8123 83.9936 40.8612 84.0914C40.9101 84.173 41.1385 84.2545 41.3668 84.2545C41.5788 84.2545 41.7582 84.3198 41.7582 84.4176C41.7582 84.4991 41.9865 84.5807 42.2474 84.5807C42.5247 84.5807 42.7367 84.6459 42.7367 84.7438C42.7367 84.8253 43.0302 84.9069 43.389 84.9069C43.7478 84.9069 44.0414 84.9721 44.0414 85.0699C44.0414 85.1515 44.3676 85.233 44.759 85.233C45.1667 85.233 45.5418 85.2983 45.5907 85.3961C45.6396 85.4777 46.1615 85.5592 46.7323 85.5592C47.3031 85.5592 47.825 85.6244 47.8739 85.7223C47.9391 85.8201 48.8035 85.8854 49.9288 85.8854C51.1193 85.8854 51.8695 85.9506 51.8695 86.0485C51.8695 86.1463 53.0111 86.2115 54.9681 86.2115C56.9252 86.2115 58.0668 86.2768 58.0668 86.3746C58.0668 86.4725 58.8333 86.5377 60.0238 86.5377C61.2143 86.5377 61.9808 86.603 61.9808 86.7008C61.9808 86.7987 62.6495 86.8639 63.6769 86.8639C64.6391 86.8639 65.4383 86.9291 65.4872 87.027C65.5361 87.1085 66.2374 87.1901 67.0365 87.1901C67.8356 87.1901 68.5369 87.2553 68.5858 87.3531C68.651 87.451 69.5969 87.5162 70.869 87.5162C72.1411 87.5162 73.087 87.5815 73.1522 87.6793C73.2175 87.7772 74.9788 87.8424 77.898 87.8424C80.8825 87.8424 82.5297 87.7772 82.5297 87.6793C82.5297 87.5815 82.8395 87.5162 83.2309 87.5162C83.9322 87.5162 84.8129 87.2227 84.8129 86.9781C84.8129 86.9128 84.927 86.8639 85.0575 86.8639C85.3837 86.8639 86.4437 85.8038 86.4437 85.4777C86.4437 85.3472 86.5253 85.233 86.6068 85.233C86.7047 85.233 86.7699 85.0536 86.7699 84.8416C86.7699 84.6133 86.8514 84.385 86.933 84.3361C87.1287 84.2219 87.1613 81.9713 86.9656 81.9713C86.9004 81.9713 86.7536 81.7593 86.6394 81.4984C86.5253 81.2211 86.2154 80.9113 85.9382 80.7971C85.6772 80.6829 85.4652 80.5362 85.4652 80.4709C85.4652 80.3894 85.3184 80.3405 85.139 80.3405C84.9596 80.3405 84.8129 80.2589 84.8129 80.1774C84.8129 80.0795 84.6009 80.0143 84.3236 80.0143C84.0627 80.0143 83.8343 79.9327 83.8343 79.8512C83.8343 79.7533 83.6223 79.6881 83.3451 79.6881C83.0842 79.6881 82.8558 79.6066 82.8558 79.525C82.8558 79.4272 82.6112 79.3619 82.3013 79.3619C81.9915 79.3619 81.6816 79.2804 81.6327 79.1989C81.5838 79.101 81.2413 79.0358 80.8825 79.0358C80.54 79.0358 80.2465 78.9542 80.2465 78.8727C80.2465 78.7748 79.7572 78.7096 79.1049 78.7096C78.4525 78.7096 77.9633 78.6444 77.9633 78.5465C77.9633 78.4323 74.0492 78.3834 66.5472 78.3834C59.0453 78.3834 55.1312 78.3345 55.1312 78.2203C55.1312 78.1225 53.9733 78.0573 51.9674 78.0573C50.0266 78.0573 48.7546 77.992 48.6893 77.8942C48.6241 77.7963 47.1074 77.7311 44.6937 77.7311C42.2801 77.7311 40.7634 77.7963 40.6981 77.8942Z" fill="#011532"/>
<path d="M37.1918 93.8766C37.1918 93.9582 37.0776 94.0397 36.9308 94.0397C36.3274 94.0397 35.8871 94.953 35.8871 96.1761C35.8871 97.1383 35.9034 97.2036 36.621 97.8885C37.0939 98.3615 37.4853 98.6061 37.7626 98.6061C37.9909 98.6061 38.1703 98.6713 38.1703 98.7692C38.1703 98.8507 38.3986 98.9323 38.6595 98.9323C38.9368 98.9323 39.1488 98.9975 39.1488 99.0954C39.1488 99.1769 39.3771 99.2584 39.6381 99.2584C39.9153 99.2584 40.1273 99.3237 40.1273 99.4215C40.1273 99.5031 40.3556 99.5846 40.6166 99.5846C40.8938 99.5846 41.1058 99.6499 41.1058 99.7477C41.1058 99.8292 41.3994 99.9108 41.7582 99.9108C42.117 99.9108 42.4105 99.976 42.4105 100.074C42.4105 100.155 42.7041 100.237 43.0629 100.237C43.4217 100.237 43.7152 100.302 43.7152 100.4C43.7152 100.482 44.0903 100.563 44.5306 100.563C44.9873 100.563 45.3461 100.628 45.3461 100.726C45.3461 100.824 45.7864 100.889 46.3246 100.889C46.8628 100.889 47.3031 100.955 47.3031 101.052C47.3031 101.15 47.8413 101.215 48.5915 101.215C49.3091 101.215 49.9451 101.281 49.994 101.379C50.0593 101.476 50.891 101.542 51.9674 101.542C53.0927 101.542 53.8265 101.607 53.8265 101.705C53.8265 101.803 55.0497 101.868 57.1535 101.868C59.2084 101.868 60.5294 101.933 60.5946 102.031C60.6598 102.129 62.0135 102.194 64.101 102.194C66.1885 102.194 67.5421 102.259 67.6073 102.357C67.7378 102.585 81.013 102.585 81.1434 102.357C81.1924 102.259 81.7469 102.194 82.3829 102.194C83.0189 102.194 83.5082 102.129 83.5082 102.031C83.5082 101.933 83.8996 101.868 84.3888 101.868C84.8781 101.868 85.3347 101.786 85.3837 101.705C85.4326 101.607 85.6283 101.542 85.8077 101.542C85.9708 101.542 86.1176 101.493 86.1176 101.411C86.1176 101.346 86.3459 101.199 86.6068 101.085C86.9004 100.955 87.0961 100.743 87.0961 100.547C87.0961 100.384 87.1776 100.237 87.2592 100.237C87.357 100.237 87.4222 100.058 87.4222 99.8456C87.4222 99.6172 87.5038 99.3889 87.5853 99.34C87.6832 99.2911 87.7484 98.9486 87.7484 98.6061C87.7484 98.2636 87.6832 97.9211 87.5853 97.8722C87.5038 97.8233 87.4222 97.5624 87.4222 97.3177C87.4222 96.6817 85.8403 95.0182 85.2369 95.0182C85.0086 95.0182 84.8129 94.9367 84.8129 94.8551C84.8129 94.7573 84.5682 94.692 84.2584 94.692C83.9485 94.692 83.6386 94.6105 83.5897 94.529C83.5408 94.4311 83.1983 94.3659 82.8395 94.3659C82.497 94.3659 82.2035 94.2843 82.2035 94.2028C82.2035 94.1049 81.6327 94.0397 80.8336 94.0397C80.0671 94.0397 79.3984 93.9582 79.3495 93.8766C79.2843 93.7788 78.2568 93.7135 76.8217 93.7135C75.3865 93.7135 74.3591 93.7788 74.2938 93.8766C74.2286 93.9745 73.3969 94.0397 72.3368 94.0397C71.2767 94.0397 70.445 94.1049 70.3798 94.2028C70.3145 94.3006 69.5154 94.3659 68.5043 94.3659C67.4931 94.3659 66.694 94.4311 66.6288 94.529C66.5636 94.6268 65.6013 94.692 64.2477 94.692C62.8452 94.692 61.9808 94.7573 61.9808 94.8551C61.9808 94.9693 59.6487 95.0182 55.2943 95.0182C50.9399 95.0182 48.6078 94.9693 48.6078 94.8551C48.6078 94.7573 47.7924 94.692 46.4877 94.692C45.183 94.692 44.3676 94.6268 44.3676 94.529C44.3676 94.4311 43.8783 94.3659 43.226 94.3659C42.5736 94.3659 42.0844 94.3006 42.0844 94.2028C42.0844 94.1049 41.5951 94.0397 40.9427 94.0397C40.2904 94.0397 39.8011 93.9745 39.8011 93.8766C39.8011 93.7788 39.263 93.7135 38.4965 93.7135C37.73 93.7135 37.1918 93.7788 37.1918 93.8766Z" fill="#011532"/>
<path d="M35.2347 108.88C35.2347 108.962 35.0553 109.044 34.827 109.044C34.354 109.044 33.2777 110.006 33.2777 110.43C33.2777 110.56 33.2124 110.674 33.1146 110.674C32.8537 110.674 32.9189 112.843 33.1961 113.398C33.3266 113.659 33.6202 113.985 33.8485 114.099C34.0768 114.213 34.2562 114.376 34.2562 114.458C34.2562 114.523 34.403 114.589 34.5824 114.589C34.7618 114.589 34.9085 114.654 34.9085 114.752C34.9085 114.833 35.0553 114.915 35.2347 114.915C35.4141 114.915 35.5609 114.98 35.5609 115.078C35.5609 115.159 35.7077 115.241 35.8871 115.241C36.0664 115.241 36.2132 115.306 36.2132 115.404C36.2132 115.485 36.36 115.567 36.5394 115.567C36.7188 115.567 36.8656 115.632 36.8656 115.73C36.8656 115.812 37.0939 115.893 37.3548 115.893C37.6321 115.893 37.8441 115.958 37.8441 116.056C37.8441 116.138 38.0724 116.219 38.3333 116.219C38.6106 116.219 38.8226 116.285 38.8226 116.382C38.8226 116.464 39.0509 116.546 39.3119 116.546C39.5891 116.546 39.8011 116.611 39.8011 116.709C39.8011 116.79 40.0947 116.872 40.4535 116.872C40.8123 116.872 41.1058 116.937 41.1058 117.035C41.1058 117.116 41.3994 117.198 41.7581 117.198C42.1169 117.198 42.4105 117.263 42.4105 117.361C42.4105 117.443 42.7856 117.524 43.2259 117.524C43.6826 117.524 44.0414 117.589 44.0414 117.687C44.0414 117.785 44.498 117.85 45.0851 117.85C45.6722 117.85 46.1941 117.915 46.243 118.013C46.2919 118.095 46.9932 118.176 47.8086 118.176C48.673 118.176 49.2601 118.242 49.2601 118.339C49.2601 118.437 49.9614 118.503 51.054 118.503C52.1467 118.503 52.848 118.568 52.848 118.666C52.848 118.764 53.6634 118.829 54.9681 118.829C56.2728 118.829 57.0882 118.894 57.0882 118.992C57.0882 119.09 57.9037 119.155 59.192 119.155C60.4315 119.155 61.3448 119.22 61.41 119.318C61.4752 119.416 62.3559 119.481 63.5464 119.481C64.7859 119.481 65.5687 119.546 65.5687 119.644C65.5687 119.742 66.3515 119.807 67.591 119.807C68.7815 119.807 69.6622 119.872 69.7274 119.97C69.7926 120.068 70.657 120.133 71.766 120.133C72.8749 120.133 73.7393 120.199 73.8045 120.297C73.8698 120.394 74.7015 120.46 75.7616 120.46C76.8216 120.46 77.6534 120.525 77.7186 120.623C77.7675 120.704 78.4362 120.786 79.2027 120.786C80.0018 120.786 80.5726 120.851 80.5726 120.949C80.5726 121.047 80.9966 121.112 81.5348 121.112C82.073 121.112 82.5623 121.177 82.6112 121.275C82.6764 121.373 83.5571 121.438 84.7476 121.438C85.9871 121.438 86.7699 121.373 86.7699 121.275C86.7699 121.177 87.0634 121.112 87.4222 121.112C87.781 121.112 88.0746 121.03 88.0746 120.949C88.0746 120.851 88.1887 120.786 88.3355 120.786C88.678 120.786 89.7054 119.758 89.7054 119.416C89.7054 119.269 89.787 119.155 89.8685 119.155C89.9664 119.155 90.0316 118.943 90.0316 118.682C90.0316 118.405 90.1131 118.144 90.1947 118.095C90.2925 118.046 90.3578 117.524 90.3578 116.937C90.3578 116.35 90.2925 115.893 90.1947 115.893C90.1131 115.893 90.0316 115.665 90.0316 115.404C90.0316 115.127 89.9664 114.915 89.8685 114.915C89.787 114.915 89.7054 114.801 89.7054 114.686C89.7054 114.556 89.4282 114.23 89.102 113.985C88.7595 113.74 88.466 113.48 88.4333 113.398C88.4007 113.333 88.2376 113.284 88.0583 113.284C87.8952 113.284 87.7484 113.202 87.7484 113.121C87.7484 113.023 87.6016 112.958 87.4385 112.958C87.2591 112.958 87.0634 112.876 87.0145 112.795C86.9656 112.697 86.7373 112.631 86.5089 112.631C86.2969 112.631 86.1175 112.55 86.1175 112.468C86.1175 112.371 85.824 112.305 85.4815 112.305C85.1227 112.305 84.7802 112.224 84.7313 112.142C84.6824 112.044 84.1605 111.979 83.5734 111.979C82.9863 111.979 82.5296 111.914 82.5296 111.816C82.5296 111.702 77.6697 111.653 68.2759 111.653C58.9311 111.653 53.9733 111.604 53.9081 111.49C53.8428 111.392 52.8154 111.327 51.3639 111.327C49.8472 111.327 48.9339 111.262 48.9339 111.164C48.9339 111.066 48.2816 111.001 47.3031 111.001C46.3246 111.001 45.6722 110.935 45.6722 110.838C45.6722 110.74 45.2319 110.674 44.6937 110.674C44.1555 110.674 43.7152 110.609 43.7152 110.511C43.7152 110.414 43.2748 110.348 42.7367 110.348C42.1985 110.348 41.7581 110.283 41.7581 110.185C41.7581 110.087 41.4646 110.022 41.1058 110.022C40.747 110.022 40.4535 109.941 40.4535 109.859C40.4535 109.761 40.1599 109.696 39.8011 109.696C39.4423 109.696 39.1488 109.614 39.1488 109.533C39.1488 109.435 38.8552 109.37 38.4964 109.37C38.1376 109.37 37.8441 109.288 37.8441 109.207C37.8441 109.109 37.4853 109.044 37.0287 109.044C36.5883 109.044 36.2132 108.962 36.2132 108.88C36.2132 108.783 36.0012 108.717 35.724 108.717C35.463 108.717 35.2347 108.783 35.2347 108.88Z" fill="#011532"/>
</svg>
