<svg width="118" height="154" viewBox="0 0 118 154" fill="none" xmlns="http://www.w3.org/2000/svg">
<path d="M66.5731 0.0491319C66.2119 0.0792317 65.926 0.169531 65.926 0.25983C65.926 0.33508 65.625 0.395279 65.2638 0.395279C64.8875 0.395279 64.5414 0.455479 64.4962 0.545778C64.4511 0.621027 64.135 0.696277 63.804 0.696277C63.4879 0.696277 63.217 0.756476 63.217 0.846775C63.217 0.922025 62.8859 0.997274 62.4645 0.997274C62.0582 0.997274 61.712 1.05747 61.712 1.14777C61.712 1.22302 61.3809 1.29827 60.9595 1.29827C60.5532 1.29827 60.207 1.35847 60.207 1.44877C60.207 1.53907 59.8007 1.59927 59.304 1.59927C58.8074 1.59927 58.401 1.65947 58.401 1.74977C58.401 1.82502 58.0398 1.90027 57.5884 1.90027C57.1369 1.90027 56.7155 1.96047 56.6703 2.05077C56.6252 2.12601 56.2489 2.20126 55.8275 2.20126C55.4212 2.20126 55.0901 2.26146 55.0901 2.35176C55.0901 2.44206 54.6687 2.50226 54.1269 2.50226C53.5851 2.50226 53.1035 2.56246 53.0583 2.65276C53.0132 2.72801 52.5617 2.80326 52.065 2.80326C51.5684 2.80326 51.1771 2.86346 51.1771 2.95376C51.1771 3.04406 50.7858 3.10426 50.2892 3.10426C49.7925 3.10426 49.341 3.16446 49.2959 3.25476C49.2507 3.33001 48.7992 3.40525 48.3176 3.40525C47.836 3.40525 47.3845 3.46545 47.3394 3.55575C47.2942 3.631 46.8427 3.70625 46.3461 3.70625C45.8494 3.70625 45.4582 3.76645 45.4582 3.85675C45.4582 3.94705 45.0669 4.00725 44.5702 4.00725C44.0736 4.00725 43.6221 4.06745 43.5769 4.15775C43.5318 4.233 43.1104 4.30825 42.6589 4.30825C42.2074 4.30825 41.8462 4.36845 41.8462 4.45875C41.8462 4.534 41.6806 4.60924 41.4699 4.60924C41.0335 4.60924 39.7392 5.79818 39.7392 6.18948C39.7392 6.30988 39.679 6.41523 39.5887 6.41523C39.5135 6.41523 39.4382 6.55068 39.4382 6.71623C39.4382 6.88178 39.378 7.01722 39.2877 7.01722C39.1974 7.01722 39.1372 7.66437 39.1372 8.65766C39.1372 9.6058 39.1974 10.3432 39.2877 10.4034C39.378 10.4486 39.4382 10.6593 39.4382 10.87C39.4382 11.0656 39.5135 11.2312 39.5887 11.2312C39.679 11.2312 39.7392 11.3666 39.7392 11.5322C39.7392 11.6977 39.8144 11.8332 39.8897 11.8332C39.98 11.8332 40.0402 12.0288 40.0402 12.2847C40.0402 12.5255 40.1154 12.7362 40.1907 12.7362C40.281 12.7362 40.3412 12.8716 40.3412 13.0372C40.3412 13.2027 40.4164 13.3382 40.4917 13.3382C40.582 13.3382 40.6422 13.5338 40.6422 13.7897C40.6422 14.0305 40.7174 14.2412 40.7927 14.2412C40.883 14.2412 40.9432 14.4067 40.9432 14.6024C40.9432 14.8131 41.0184 15.0238 41.0937 15.0689C41.184 15.1141 41.2442 15.2947 41.2442 15.4602C41.2442 15.7311 41.1087 15.7462 38.2493 15.7462C36.3981 15.7462 35.2092 15.8064 35.149 15.8967C35.1038 15.9719 34.9383 16.0472 34.7727 16.0472C34.4567 16.0472 33.4183 17.0404 33.4183 17.3414C33.4183 17.4618 33.3581 17.5521 33.2678 17.5521C33.1925 17.5521 33.1173 17.6876 33.1173 17.8531C33.1173 18.0187 33.0571 18.1541 32.9668 18.1541C32.8915 18.1541 32.8163 18.3498 32.8163 18.5906C32.8163 18.8464 32.7561 19.0872 32.6658 19.1324C32.5905 19.1775 32.5153 19.6591 32.5153 20.1859C32.5153 20.7126 32.5905 21.1942 32.6658 21.2394C32.7561 21.2845 32.8163 21.5705 32.8163 21.8564C32.8163 22.1424 32.8915 22.3681 32.9668 22.3681C33.0571 22.3681 33.1173 22.5035 33.1173 22.6691C33.1173 22.8346 33.1925 22.9701 33.2678 22.9701C33.3581 22.9701 33.4183 23.0754 33.4183 23.1958C33.4183 23.7527 35.2844 25.0771 36.067 25.0771C36.2627 25.0771 36.4282 25.1373 36.4282 25.2276C36.4282 25.3028 36.6991 25.3781 37.0302 25.3781C37.3613 25.3781 37.6322 25.4383 37.6322 25.5286C37.6322 25.6038 37.9332 25.6791 38.2944 25.6791C38.6707 25.6791 39.0168 25.7393 39.062 25.8296C39.1071 25.9048 39.6188 25.9801 40.2057 25.9801C40.7927 25.9801 41.2442 26.0403 41.2442 26.1306C41.2442 26.2209 42.6438 26.2811 45.1572 26.2811C47.6705 26.2811 49.0701 26.2209 49.0701 26.1306C49.0701 26.0403 49.7925 25.9801 50.9363 25.9801C52.0349 25.9801 52.8476 25.9199 52.9078 25.8296C52.953 25.7393 53.6603 25.6791 54.5031 25.6791C55.3911 25.6791 55.9931 25.6189 55.9931 25.5286C55.9931 25.4383 56.5499 25.3781 57.3476 25.3781C58.1452 25.3781 58.702 25.3179 58.702 25.2276C58.702 25.1373 60.0264 25.0771 62.3742 25.0771C64.6768 25.0771 66.0915 25.0169 66.1517 24.9266C66.2119 24.8363 67.5514 24.7761 69.6885 24.7761C71.8255 24.7761 73.165 24.7159 73.2252 24.6256C73.2703 24.5353 73.8121 24.4751 74.4292 24.4751C75.0462 24.4751 75.588 24.3998 75.6332 24.3246C75.6783 24.2343 76.0244 24.1741 76.4007 24.1741C76.7619 24.1741 77.0629 24.0988 77.0629 24.0236C77.0629 23.9333 77.3338 23.8731 77.6649 23.8731C77.996 23.8731 78.2669 23.7978 78.2669 23.7226C78.2669 23.6323 78.4776 23.5721 78.7184 23.5721C78.9742 23.5721 79.1699 23.4968 79.1699 23.4216C79.1699 23.3313 79.3053 23.2711 79.4709 23.2711C79.6364 23.2711 79.7719 23.1958 79.7719 23.1206C79.7719 23.0303 79.9525 22.9701 80.1632 22.9701C80.3889 22.9701 80.6749 22.8497 80.8103 22.6992C80.9458 22.5487 81.1715 22.3831 81.322 22.3229C81.4575 22.2778 81.5779 22.1424 81.5779 22.037C81.5779 21.9166 81.7133 21.736 81.8789 21.6156C82.0444 21.4952 82.1798 21.2845 82.1798 21.134C82.1798 20.9835 82.2551 20.8631 82.3303 20.8631C82.4206 20.8631 82.4808 20.6374 82.4808 20.3514C82.4808 20.0655 82.5561 19.7795 82.6313 19.7344C82.7216 19.6892 82.7818 19.4183 82.7818 19.1324C82.7818 18.8464 82.7216 18.5755 82.6313 18.5304C82.5561 18.4852 82.4808 18.1692 82.4808 17.8381C82.4808 17.522 82.4206 17.2511 82.3303 17.2511C82.2551 17.2511 82.1798 17.0856 82.1798 16.8899C82.1798 16.4986 80.8705 15.0539 80.1933 14.7077C79.9525 14.5873 79.7719 14.4368 79.7719 14.3616C79.7719 14.3014 79.5762 14.2412 79.3204 14.2412C79.0796 14.2412 78.8689 14.1659 78.8689 14.0907C78.8689 14.0004 78.7334 13.9402 78.5679 13.9402C78.4023 13.9402 78.2669 13.8649 78.2669 13.7897C78.2669 13.6994 77.9358 13.6392 77.5144 13.6392C77.108 13.6392 76.7619 13.5639 76.7619 13.4887C76.7619 13.3984 76.205 13.3382 75.4074 13.3382H74.0529V12.8867C74.0529 12.6308 74.1282 12.4352 74.2034 12.4352C74.2937 12.4352 74.3539 10.7797 74.3539 7.76972C74.3539 4.75974 74.2937 3.10426 74.2034 3.10426C74.1282 3.10426 74.0529 2.90861 74.0529 2.68286C74.0529 2.44206 73.9325 2.17116 73.7519 2.05077C73.5864 1.93037 73.4509 1.73472 73.4509 1.62937C73.4509 1.37352 72.4125 0.395279 72.1566 0.395279C72.0513 0.395279 71.9459 0.30498 71.9158 0.199631C71.8556 0.0641818 71.2386 0.0190321 69.5229 0.00398227C68.2437 -0.0110676 66.9193 0.0190321 66.5731 0.0491319Z" fill="#F8FCFC"/>
<path d="M101.82 14.0907C101.775 14.1659 101.399 14.2411 100.977 14.2411C100.571 14.2411 100.24 14.3013 100.24 14.3916C100.24 14.4669 99.9688 14.5421 99.6377 14.5421C99.3066 14.5421 99.0357 14.6023 99.0357 14.6926C99.0357 14.7679 98.7648 14.8431 98.4337 14.8431C98.1026 14.8431 97.8317 14.9033 97.8317 14.9936C97.8317 15.0689 97.6361 15.1441 97.3802 15.1441C97.1394 15.1441 96.9287 15.2043 96.9287 15.2946C96.9287 15.3699 96.7632 15.4451 96.5675 15.4451C96.3568 15.4451 96.1461 15.5053 96.101 15.5956C96.0558 15.6709 95.8752 15.7461 95.7097 15.7461C95.5592 15.7461 95.4237 15.8063 95.4237 15.8966C95.4237 15.9719 95.2883 16.0471 95.1227 16.0471C94.9572 16.0471 94.8217 16.1073 94.8217 16.1976C94.8217 16.2729 94.6863 16.3481 94.5208 16.3481C94.3552 16.3481 94.2198 16.4083 94.2198 16.4986C94.2198 16.5739 94.0843 16.6491 93.9188 16.6491C93.7532 16.6491 93.6178 16.7093 93.6178 16.7996C93.6178 16.8749 93.4823 16.9501 93.3168 16.9501C93.1512 16.9501 93.0158 17.0103 93.0158 17.1006C93.0158 17.1759 92.8803 17.2511 92.7148 17.2511C92.5492 17.2511 92.4138 17.3113 92.4138 17.4016C92.4138 17.4769 92.3084 17.5521 92.188 17.5521C92.0676 17.5521 91.8118 17.6424 91.6161 17.7327C91.0743 18.0488 89.7048 19.4635 89.7048 19.7193C89.7048 19.8548 89.6446 19.9601 89.5543 19.9601C89.479 19.9601 89.4038 20.1558 89.4038 20.4116C89.4038 20.6524 89.3436 20.8631 89.2533 20.8631C89.163 20.8631 89.1028 21.2845 89.1028 21.8263C89.1028 22.3681 89.178 22.8497 89.2533 22.8948C89.3436 22.94 89.4038 23.1808 89.4038 23.4366C89.4038 23.6774 89.479 23.8731 89.5543 23.8731C89.6446 23.8731 89.7048 23.9784 89.7048 24.0988C89.7048 24.3095 89.9757 24.8965 90.1563 25.0771C90.2014 25.1222 90.4272 25.4082 90.6529 25.7092C90.8787 26.0252 91.1646 26.2811 91.2549 26.2811C91.3603 26.2811 91.5409 26.4165 91.6613 26.582C91.7817 26.7476 91.9924 26.883 92.1429 26.883C92.2934 26.883 92.4138 26.9432 92.4138 27.0335C92.4138 27.1088 92.6847 27.184 93.0158 27.184C93.3469 27.184 93.6178 27.2442 93.6178 27.3345C93.6178 27.4098 93.9489 27.485 94.3552 27.485C94.7766 27.485 95.1528 27.4098 95.198 27.3345C95.2431 27.2442 95.5291 27.184 95.815 27.184C96.101 27.184 96.3267 27.1088 96.3267 27.0335C96.3267 26.9432 96.5374 26.883 96.7782 26.883C97.0341 26.883 97.2297 26.8078 97.2297 26.7325C97.2297 26.6422 97.5759 26.582 97.9822 26.582C98.4036 26.582 98.7347 26.5068 98.7347 26.4315C98.7347 26.3413 99.0357 26.2811 99.3969 26.2811C99.7732 26.2811 100.119 26.2058 100.164 26.1306C100.21 26.0403 100.556 25.9801 100.917 25.9801C101.278 25.9801 101.624 25.9048 101.669 25.8296C101.715 25.7393 102.061 25.6791 102.422 25.6791C102.783 25.6791 103.129 25.6038 103.174 25.5286C103.43 25.1222 103.551 25.4985 103.551 26.6422C103.551 27.3496 103.626 27.9666 103.701 28.0118C103.791 28.072 103.852 29.0352 103.852 30.4198C103.852 31.8044 103.912 32.7676 104.002 32.8278C104.092 32.8729 104.153 33.5802 104.153 34.423C104.153 35.311 104.213 35.913 104.303 35.913C104.393 35.913 104.454 36.4698 104.454 37.2675C104.454 38.0651 104.514 38.622 104.604 38.622C104.694 38.622 104.755 39.1788 104.755 39.9764C104.755 40.7741 104.815 41.3309 104.905 41.3309C104.995 41.3309 105.056 41.8878 105.056 42.6854C105.056 43.4831 105.116 44.0399 105.206 44.0399C105.296 44.0399 105.357 44.5968 105.357 45.3944C105.357 46.192 105.417 46.7489 105.507 46.7489C105.597 46.7489 105.658 47.3057 105.658 48.1034C105.658 48.901 105.718 49.4579 105.808 49.4579C105.898 49.4579 105.959 49.9846 105.959 50.7221C105.959 51.4294 106.034 52.0464 106.109 52.0916C106.199 52.1518 106.26 52.8892 106.26 53.8374C106.26 54.8307 106.32 55.4778 106.41 55.4778C106.5 55.4778 106.561 56.3959 106.561 57.946C106.561 59.4359 106.621 60.4593 106.711 60.5195C106.801 60.5797 106.862 63.2285 106.862 67.9692C106.862 72.7099 106.801 75.3587 106.711 75.4189C106.621 75.4791 106.561 77.0443 106.561 79.6479C106.561 82.2967 106.5 83.7716 106.41 83.7716C106.32 83.7716 106.26 84.9756 106.26 87.0826C106.26 89.1895 106.199 90.3935 106.109 90.3935C106.019 90.3935 105.959 91.447 105.959 93.238C105.959 94.9837 105.898 96.1275 105.808 96.1877C105.718 96.2479 105.658 97.3616 105.658 99.0472C105.658 100.733 105.597 101.846 105.507 101.907C105.417 101.967 105.357 103.111 105.357 104.841C105.357 106.572 105.296 107.716 105.206 107.776C105.116 107.836 105.056 109.958 105.056 113.646C105.056 117.333 105.116 119.455 105.206 119.515C105.296 119.575 105.357 121.472 105.357 124.722C105.357 128.018 105.296 129.824 105.206 129.824C105.116 129.824 105.056 130.276 105.056 130.878C105.056 131.48 104.995 131.931 104.905 131.931C104.83 131.931 104.755 132.262 104.755 132.684C104.755 133.09 104.694 133.436 104.604 133.436C104.529 133.436 104.454 133.632 104.454 133.888C104.454 134.128 104.393 134.339 104.303 134.339C104.228 134.339 104.153 134.535 104.153 134.791C104.153 135.031 104.092 135.242 104.002 135.242C103.927 135.242 103.852 135.378 103.852 135.543C103.852 135.709 103.791 135.844 103.701 135.844C103.626 135.844 103.551 135.95 103.551 136.07C103.551 136.341 103.28 136.837 102.919 137.259C102.768 137.424 102.648 137.62 102.648 137.68C102.648 137.906 100.706 139.757 100.465 139.757C100.345 139.757 100.24 139.802 100.24 139.862C100.24 139.998 99.5023 140.359 99.2314 140.359C99.126 140.359 99.0357 140.419 99.0357 140.51C99.0357 140.585 98.8401 140.66 98.5842 140.66C98.3434 140.66 98.1327 140.72 98.1327 140.811C98.1327 140.886 97.9371 140.961 97.6812 140.961C97.4404 140.961 97.2297 141.021 97.2297 141.112C97.2297 141.187 96.8986 141.262 96.4772 141.262C96.0709 141.262 95.7247 141.322 95.7247 141.413C95.7247 141.488 95.4237 141.563 95.0625 141.563C94.6863 141.563 94.3402 141.623 94.295 141.714C94.2499 141.789 93.8736 141.864 93.4673 141.864C93.0609 141.864 92.6847 141.924 92.6395 142.015C92.5944 142.09 92.1128 142.165 91.571 142.165C91.0292 142.165 90.6078 142.225 90.6078 142.316C90.6078 142.406 90.0509 142.466 89.2533 142.466C88.4556 142.466 87.8988 142.526 87.8988 142.617C87.8988 142.707 87.3721 142.767 86.6346 142.767C85.9273 142.767 85.3102 142.827 85.2651 142.918C85.2049 143.008 84.1062 143.068 82.4808 143.068C80.8555 143.068 79.7568 143.128 79.6966 143.219C79.5762 143.429 70.1851 143.429 70.0647 143.219C70.0045 143.128 68.6801 143.068 66.5882 143.068C64.436 143.068 63.217 143.008 63.217 142.918C63.217 142.827 62.314 142.767 60.8241 142.767C59.3793 142.767 58.386 142.707 58.3258 142.617C58.2656 142.526 57.3927 142.466 56.2188 142.466C55.0449 142.466 54.172 142.406 54.1118 142.316C54.0516 142.225 53.1787 142.165 52.0048 142.165C50.831 142.165 49.9581 142.105 49.8979 142.015C49.8377 141.924 48.9648 141.864 47.7909 141.864C46.617 141.864 45.7441 141.804 45.6839 141.714C45.5635 141.503 34.9232 141.503 34.9232 141.714C34.9232 141.804 33.945 141.864 32.3046 141.864C30.7093 141.864 29.6407 141.924 29.5805 142.015C29.4601 142.225 18.4135 142.225 18.2931 142.015C18.248 141.924 17.6309 141.864 16.9236 141.864C16.1861 141.864 15.6594 141.804 15.6594 141.714C15.6594 141.623 15.3885 141.563 15.0574 141.563C14.7263 141.563 14.4554 141.488 14.4554 141.413C14.4554 141.322 14.3501 141.262 14.2297 141.262C13.9287 141.262 12.9504 140.284 12.9504 139.983C12.9504 139.862 12.8902 139.757 12.7999 139.757C12.7247 139.757 12.6494 139.622 12.6494 139.456C12.6494 139.291 12.5892 139.155 12.4989 139.155C12.4237 139.155 12.3484 139.02 12.3484 138.854C12.3484 138.689 12.2882 138.553 12.1979 138.553C12.1227 138.553 12.0474 138.342 12.0474 138.102C12.0474 137.846 11.9872 137.65 11.8969 137.65C11.8217 137.65 11.7464 137.439 11.7464 137.199C11.7464 136.943 11.6862 136.747 11.5959 136.747C11.5056 136.747 11.4454 136.341 11.4454 135.844C11.4454 135.348 11.3852 134.941 11.2949 134.941C11.2046 134.941 11.1444 134.369 11.1444 133.526C11.1444 132.729 11.0842 132.052 10.9939 132.006C10.7832 131.886 10.7832 124.752 10.9939 124.632C11.0842 124.572 11.1444 123.548 11.1444 122.074C11.1444 120.599 11.2046 119.575 11.2949 119.515C11.3852 119.455 11.4454 118.687 11.4454 117.709C11.4454 116.731 11.5056 115.963 11.5959 115.903C11.6862 115.843 11.7464 115.105 11.7464 114.172C11.7464 113.239 11.8066 112.502 11.8969 112.442C11.9872 112.396 12.0474 111.659 12.0474 110.786C12.0474 109.913 12.1076 109.176 12.1979 109.131C12.4086 109.01 12.4086 93.9002 12.1979 93.7798C12.1076 93.7196 12.0474 92.3952 12.0474 90.3183C12.0474 88.2414 11.9872 86.917 11.8969 86.8568C11.8066 86.7966 11.7464 85.698 11.7464 84.0726C11.7464 82.4472 11.6862 81.3486 11.5959 81.2884C11.5056 81.2282 11.4454 80.1295 11.4454 78.5041C11.4454 76.8787 11.3852 75.7801 11.2949 75.7199C11.2046 75.6597 11.1444 74.1397 11.1444 71.6564C11.1444 69.1732 11.0842 67.6532 10.9939 67.593C10.9036 67.5328 10.8434 65.9375 10.8434 63.2887C10.8434 60.5948 10.7832 59.0898 10.6929 59.0898C10.4822 59.0898 10.4822 48.299 10.6929 48.1786C10.7832 48.1184 10.8434 47.2305 10.8434 45.9964C10.8434 44.7623 10.9036 43.8744 10.9939 43.8142C11.0842 43.769 11.1444 43.3175 11.1444 42.8359C11.1444 42.3543 11.2197 41.9028 11.2949 41.8577C11.3702 41.8125 11.4454 41.4363 11.4454 41.0299C11.4454 40.6236 11.5207 40.2473 11.5959 40.2022C11.6862 40.157 11.7464 39.841 11.7464 39.5099C11.7464 39.1939 11.8217 38.923 11.8969 38.923C11.9872 38.923 12.0474 38.7273 12.0474 38.4865C12.0474 38.2307 12.1227 37.9899 12.1979 37.9447C12.2882 37.8996 12.3484 37.6889 12.3484 37.4932C12.3484 37.2976 12.4237 37.0869 12.4989 37.0417C12.5892 36.9966 12.6494 36.831 12.6494 36.6805C12.6494 36.3795 13.5524 34.5133 13.7481 34.4381C13.8083 34.408 13.8534 34.2725 13.8534 34.122C13.8534 33.9866 13.9889 33.7759 14.1544 33.6555C14.32 33.5351 14.4554 33.3545 14.4554 33.2642C14.4554 33.0234 15.7798 31.699 16.0206 31.699C16.1109 31.699 16.2915 31.5636 16.4119 31.398C16.5323 31.2325 16.743 31.097 16.8935 31.097C17.044 31.097 17.1644 31.0218 17.1644 30.9465C17.1644 30.8562 17.2998 30.796 17.4503 30.796C17.6159 30.796 17.7965 30.7208 17.8416 30.6455C17.8868 30.5552 18.2329 30.495 18.6092 30.495C18.9704 30.495 19.4068 30.4047 19.5724 30.3144C19.8132 30.1639 19.9336 30.1639 20.1744 30.3144C20.5356 30.5251 21.4686 30.5552 21.6041 30.3445C21.6492 30.2542 21.89 30.194 22.1459 30.194C22.3867 30.194 22.5823 30.1188 22.5823 30.0435C22.5823 29.9532 22.6877 29.893 22.8081 29.893C23.1091 29.893 23.7863 29.2158 23.7863 28.9148C23.7863 28.7944 23.8616 28.689 23.9368 28.689C24.0271 28.689 24.0873 28.5536 24.0873 28.388C24.0873 28.2225 24.1626 28.087 24.2378 28.087C24.3281 28.087 24.3883 27.485 24.3883 26.582C24.3883 25.6791 24.3281 25.0771 24.2378 25.0771C24.1626 25.0771 24.0873 24.9115 24.0873 24.7309C24.0873 24.3095 22.8833 22.9701 22.5221 22.9701C22.3867 22.9701 22.2813 22.8948 22.2813 22.8196C22.2813 22.7293 22.1459 22.6691 21.9803 22.6691C21.8148 22.6691 21.6793 22.5938 21.6793 22.5186C21.6793 22.4283 21.5439 22.3681 21.3934 22.3681C21.2279 22.3681 21.0473 22.2928 21.0021 22.2176C20.957 22.1273 20.7463 22.0671 20.5356 22.0671C20.3399 22.0671 20.1744 21.9918 20.1744 21.9166C20.1744 21.8263 19.9787 21.7661 19.7229 21.7661C19.4821 21.7661 19.2714 21.6908 19.2714 21.6156C19.2714 21.5253 19.0456 21.4651 18.7597 21.4651C18.4737 21.4651 18.1878 21.3898 18.1426 21.3146C18.0975 21.2243 17.8266 21.1641 17.5406 21.1641C17.2547 21.1641 16.9838 21.0888 16.9386 21.0136C16.8935 20.9233 16.5172 20.8631 16.0958 20.8631C15.6895 20.8631 15.3584 20.7878 15.3584 20.7126C15.3584 20.6223 14.2598 20.5621 12.3484 20.5621C10.4371 20.5621 9.33845 20.6223 9.33845 20.7126C9.33845 20.7878 9.203 20.8631 9.03745 20.8631C8.8719 20.8631 8.73645 20.9233 8.73645 21.0136C8.73645 21.0888 8.6311 21.1641 8.51071 21.1641C8.22476 21.1641 7.23147 22.1273 7.23147 22.3982C7.23147 22.5186 7.09602 22.6992 6.93047 22.8196C6.76492 22.94 6.62947 23.1507 6.62947 23.3012C6.62947 23.4366 6.55422 23.6022 6.47897 23.6473C6.40372 23.6925 6.32847 23.9032 6.32847 24.1139C6.32847 24.3095 6.26827 24.4751 6.17797 24.4751C6.10272 24.4751 6.02748 24.6707 6.02748 24.9266C6.02748 25.1674 5.96728 25.3781 5.87698 25.3781C5.80173 25.3781 5.72648 25.5737 5.72648 25.8296C5.72648 26.0704 5.66628 26.2811 5.57598 26.2811C5.50073 26.2811 5.42548 26.4767 5.42548 26.7325C5.42548 26.9733 5.36528 27.184 5.27498 27.184C5.19973 27.184 5.12448 27.3797 5.12448 27.6355C5.12448 27.8763 5.06428 28.087 4.97398 28.087C4.89873 28.087 4.82349 28.2827 4.82349 28.5385C4.82349 28.7793 4.76329 28.99 4.67299 28.99C4.59774 28.99 4.52249 29.1857 4.52249 29.4415C4.52249 29.6823 4.46229 29.893 4.37199 29.893C4.29674 29.893 4.22149 30.1639 4.22149 30.495C4.22149 30.8261 4.16129 31.097 4.07099 31.097C3.99574 31.097 3.92049 31.3679 3.92049 31.699C3.92049 32.0301 3.86029 32.301 3.76999 32.301C3.69474 32.301 3.6195 32.4967 3.6195 32.7375C3.6195 32.9933 3.5593 33.2341 3.469 33.2793C3.39375 33.3244 3.3185 33.6103 3.3185 33.8963C3.3185 34.1822 3.2583 34.408 3.168 34.408C3.09275 34.408 3.0175 34.6789 3.0175 35.01C3.0175 35.3411 2.9573 35.612 2.867 35.612C2.79175 35.612 2.7165 35.9431 2.7165 36.3494C2.7165 36.7708 2.6563 37.1471 2.566 37.1922C2.49075 37.2374 2.41551 37.5835 2.41551 37.9447C2.41551 38.3059 2.34026 38.6521 2.26501 38.6972C2.18976 38.7424 2.11451 39.1186 2.11451 39.525C2.11451 39.9313 2.03926 40.3075 1.96401 40.3527C1.87371 40.3978 1.81351 40.7741 1.81351 41.1955C1.81351 41.6018 1.75331 41.9329 1.66301 41.9329C1.57271 41.9329 1.51251 42.3995 1.51251 43.0466C1.51251 43.6637 1.43726 44.2205 1.36201 44.2657C1.27171 44.3108 1.21152 44.8225 1.21152 45.4095C1.21152 45.9964 1.15132 46.4479 1.06102 46.4479C0.970717 46.4479 0.910518 47.0047 0.910518 47.8024C0.910518 48.6 0.850318 49.1569 0.760019 49.1569C0.66972 49.1569 0.60952 49.8341 0.60952 50.8726C0.60952 51.8659 0.54932 52.6334 0.459021 52.6936C0.368722 52.7538 0.308522 53.8524 0.308522 55.4778C0.308522 57.1032 0.248323 58.2018 0.158024 58.262C-0.0526746 58.3824 -0.0526746 74.546 0.158024 74.6664C0.248323 74.7266 0.308522 76.2166 0.308522 78.6546C0.308522 81.0927 0.368722 82.5827 0.459021 82.6428C0.54932 82.703 0.60952 84.0726 0.60952 86.2699C0.60952 88.5123 0.66972 89.7915 0.760019 89.7915C0.850318 89.7915 0.910518 90.9955 0.910518 93.1025C0.910518 95.2095 0.970717 96.4135 1.06102 96.4135C1.15132 96.4135 1.21152 98.3098 1.21152 101.816C1.21152 105.263 1.27171 107.264 1.36201 107.325C1.57271 107.445 1.57271 116.279 1.36201 116.279C1.27171 116.279 1.21152 117.559 1.21152 119.801C1.21152 121.998 1.15132 123.368 1.06102 123.428C0.850318 123.548 0.850318 134.038 1.06102 134.038C1.15132 134.038 1.21152 134.595 1.21152 135.393C1.21152 136.19 1.27171 136.747 1.36201 136.747C1.45231 136.747 1.51251 137.078 1.51251 137.5C1.51251 137.906 1.58776 138.252 1.66301 138.252C1.75331 138.252 1.81351 138.523 1.81351 138.854C1.81351 139.185 1.88876 139.456 1.96401 139.456C2.05431 139.456 2.11451 139.727 2.11451 140.058C2.11451 140.389 2.18976 140.66 2.26501 140.66C2.35531 140.66 2.41551 140.856 2.41551 141.112C2.41551 141.352 2.49075 141.563 2.566 141.563C2.6563 141.563 2.7165 141.729 2.7165 141.924C2.7165 142.135 2.79175 142.346 2.867 142.391C2.9573 142.436 3.0175 142.617 3.0175 142.782C3.0175 142.933 3.09275 143.068 3.168 143.068C3.2583 143.068 3.3185 143.264 3.3185 143.505C3.3185 143.745 3.36365 143.971 3.4389 144.001C3.4991 144.016 3.70979 144.362 3.90544 144.769C4.10109 145.16 4.32684 145.476 4.40209 145.476C4.46229 145.476 4.52249 145.596 4.52249 145.747C4.52249 145.897 4.65794 146.108 4.82349 146.229C4.98903 146.349 5.12448 146.545 5.12448 146.65C5.12448 146.77 5.33518 147.056 5.57598 147.282C5.83183 147.508 6.02748 147.779 6.02748 147.884C6.02748 148.08 7.95386 149.991 8.14951 149.991C8.22476 149.991 8.49566 150.202 8.76655 150.443C9.0224 150.698 9.3234 150.894 9.42875 150.894C9.54915 150.894 9.63945 150.954 9.63945 151.045C9.63945 151.12 9.77489 151.195 9.94044 151.195C10.106 151.195 10.2414 151.255 10.2414 151.346C10.2414 151.421 10.3769 151.496 10.5424 151.496C10.708 151.496 10.8434 151.556 10.8434 151.647C10.8434 151.722 11.0541 151.797 11.2949 151.797C11.5508 151.797 11.7464 151.857 11.7464 151.948C11.7464 152.023 11.912 152.098 12.1076 152.098C12.3183 152.098 12.529 152.173 12.5742 152.249C12.6193 152.339 12.8601 152.399 13.116 152.399C13.3568 152.399 13.5524 152.459 13.5524 152.55C13.5524 152.625 13.8233 152.7 14.1394 152.7C14.4705 152.7 14.7865 152.76 14.8317 152.851C14.8768 152.926 15.3283 153.001 15.8099 153.001C16.2915 153.001 16.743 153.061 16.7881 153.152C16.8483 153.242 17.962 153.302 19.6476 153.302C21.3332 153.302 22.4469 153.362 22.5071 153.453C22.6275 153.648 24.7947 153.648 24.9151 153.453C24.9753 153.362 25.9987 153.302 27.4735 153.302C28.9484 153.302 29.9718 153.242 30.032 153.152C30.0772 153.061 30.8146 153.001 31.6875 153.001C32.5604 153.001 33.2979 152.941 33.343 152.851C33.3882 152.76 34.1256 152.7 34.9985 152.7C35.8714 152.7 36.6088 152.64 36.654 152.55C36.7142 152.459 37.4516 152.399 38.3998 152.399C39.3931 152.399 40.0402 152.339 40.0402 152.249C40.0402 152.038 48.122 152.038 48.2424 152.249C48.3026 152.339 49.1153 152.399 50.1989 152.399C51.2825 152.399 52.0951 152.459 52.1553 152.55C52.2155 152.64 52.9831 152.7 53.9613 152.7C54.9396 152.7 55.7071 152.76 55.7673 152.851C55.8275 152.941 56.5951 153.001 57.5884 153.001C58.6268 153.001 59.304 153.061 59.304 153.152C59.304 153.242 60.0565 153.302 61.2605 153.302C62.4645 153.302 63.217 153.362 63.217 153.453C63.217 153.543 63.9093 153.603 64.9929 153.603C66.2119 153.603 66.829 153.663 66.9494 153.799C67.2353 154.07 90.7733 154.07 90.8636 153.784C90.9088 153.663 91.3001 153.603 92.1128 153.603C92.7599 153.603 93.3469 153.528 93.392 153.453C93.4372 153.362 93.7833 153.302 94.1596 153.302C94.5208 153.302 94.8217 153.227 94.8217 153.152C94.8217 153.061 95.1679 153.001 95.5742 153.001C95.9956 153.001 96.3267 152.926 96.3267 152.851C96.3267 152.76 96.6277 152.7 96.9889 152.7C97.3652 152.7 97.7113 152.625 97.7565 152.55C97.8016 152.459 98.1177 152.399 98.4488 152.399C98.7648 152.399 99.0357 152.324 99.0357 152.249C99.0357 152.158 99.2464 152.098 99.4872 152.098C99.7431 152.098 99.9387 152.023 99.9387 151.948C99.9387 151.857 100.149 151.797 100.39 151.797C100.646 151.797 100.842 151.722 100.842 151.647C100.842 151.556 101.052 151.496 101.293 151.496C101.549 151.496 101.745 151.421 101.745 151.346C101.745 151.255 101.88 151.195 102.046 151.195C102.211 151.195 102.347 151.12 102.347 151.045C102.347 150.954 102.557 150.894 102.798 150.894C103.054 150.894 103.25 150.819 103.25 150.744C103.25 150.653 103.385 150.593 103.551 150.593C103.716 150.593 103.852 150.518 103.852 150.443C103.852 150.352 103.987 150.292 104.153 150.292C104.318 150.292 104.454 150.217 104.454 150.142C104.454 150.051 104.559 149.991 104.679 149.991C104.815 149.991 105.056 149.856 105.236 149.69C105.417 149.525 105.658 149.389 105.763 149.389C105.868 149.389 105.959 149.314 105.959 149.239C105.959 149.148 106.079 149.088 106.23 149.088C106.38 149.088 106.591 148.953 106.711 148.787C106.832 148.622 107.027 148.486 107.133 148.486C107.253 148.486 107.539 148.275 107.765 148.035C107.99 147.779 108.261 147.583 108.352 147.583C108.547 147.583 110.775 145.356 110.775 145.16C110.775 145.07 110.985 144.799 111.226 144.573C111.482 144.347 111.678 144.061 111.678 143.941C111.678 143.836 111.813 143.64 111.979 143.52C112.144 143.399 112.28 143.189 112.28 143.038C112.28 142.888 112.355 142.767 112.43 142.767C112.52 142.767 112.581 142.632 112.581 142.466C112.581 142.301 112.656 142.165 112.731 142.165C112.821 142.165 112.882 142.03 112.882 141.864C112.882 141.699 112.957 141.563 113.032 141.563C113.122 141.563 113.183 141.428 113.183 141.262C113.183 141.097 113.258 140.961 113.333 140.961C113.423 140.961 113.484 140.796 113.484 140.6C113.484 140.389 113.559 140.179 113.634 140.133C113.724 140.088 113.785 139.847 113.785 139.592C113.785 139.351 113.86 139.155 113.935 139.155C114.025 139.155 114.086 138.944 114.086 138.704C114.086 138.448 114.161 138.252 114.236 138.252C114.326 138.252 114.387 137.951 114.387 137.59C114.387 137.214 114.462 136.868 114.537 136.822C114.627 136.777 114.688 136.401 114.688 135.995C114.688 135.588 114.763 135.212 114.838 135.167C114.928 135.122 114.989 134.7 114.989 134.249C114.989 133.797 115.064 133.436 115.139 133.436C115.229 133.436 115.29 133.03 115.29 132.533C115.29 132.037 115.35 131.63 115.44 131.63C115.53 131.63 115.591 131.088 115.591 130.291C115.591 129.538 115.666 128.891 115.741 128.846C115.831 128.801 115.892 128.124 115.892 127.326C115.892 126.483 115.952 125.911 116.042 125.911C116.132 125.911 116.193 124.918 116.193 123.217C116.193 121.577 116.253 120.478 116.343 120.418C116.448 120.358 116.494 114.217 116.494 102.509C116.494 90.7999 116.539 84.6595 116.644 84.5993C116.734 84.5391 116.795 82.7482 116.795 79.7081C116.795 76.668 116.855 74.8771 116.945 74.8169C117.05 74.7567 117.096 71.2049 117.096 64.6582C117.096 58.1115 117.05 54.5598 116.945 54.4996C116.855 54.4394 116.795 53.4461 116.795 52.0163C116.795 50.5866 116.734 49.5933 116.644 49.5331C116.554 49.488 116.494 48.8107 116.494 48.0281C116.494 47.2455 116.433 46.5683 116.343 46.5231C116.268 46.478 116.193 45.891 116.193 45.2289C116.193 44.5366 116.132 44.0399 116.042 44.0399C115.952 44.0399 115.892 43.5433 115.892 42.8359C115.892 42.1286 115.831 41.6319 115.741 41.6319C115.651 41.6319 115.591 41.1654 115.591 40.5182C115.591 39.9012 115.53 39.3444 115.44 39.2992C115.365 39.2541 115.29 38.7424 115.29 38.1705C115.29 37.5986 115.229 37.0869 115.139 37.0417C115.064 36.9966 114.989 36.4096 114.989 35.7625C114.989 35.1153 114.928 34.5284 114.838 34.4832C114.763 34.4381 114.688 33.8511 114.688 33.204C114.688 32.5569 114.627 31.9699 114.537 31.9248C114.447 31.8796 114.387 31.1422 114.387 30.2693C114.387 29.3964 114.326 28.6589 114.236 28.6138C114.146 28.5536 114.086 26.5369 114.086 23.0303C114.086 19.4785 114.025 17.5521 113.935 17.5521C113.86 17.5521 113.785 17.3414 113.785 17.1006C113.785 16.8448 113.724 16.6491 113.664 16.6491C113.589 16.6491 113.438 16.4685 113.318 16.2277C113.047 15.701 112.49 15.1441 112.25 15.1441C112.129 15.1441 111.949 15.0087 111.828 14.8431C111.708 14.6776 111.497 14.5421 111.347 14.5421C111.196 14.5421 111.076 14.4669 111.076 14.3916C111.076 14.3013 110.88 14.2411 110.624 14.2411C110.383 14.2411 110.173 14.1659 110.173 14.0907C110.173 14.0004 108.698 13.9402 106.049 13.9402C103.445 13.9402 101.88 14.0004 101.82 14.0907Z" fill="#F8FCFC"/>
<path d="M62.6903 46.5984C62.6301 46.6887 61.3358 46.7489 59.3041 46.7489C57.2723 46.7489 55.9781 46.8091 55.9179 46.8994C55.8577 46.9897 55.0149 47.0499 53.8861 47.0499C52.7574 47.0499 51.9146 47.1101 51.8544 47.2004C51.7942 47.2907 50.9815 47.3509 49.8979 47.3509C48.8143 47.3509 48.0016 47.4111 47.9414 47.5014C47.8812 47.5917 47.0836 47.6519 46.0602 47.6519C45.0368 47.6519 44.2392 47.7121 44.179 47.8024C44.1188 47.8927 43.3512 47.9529 42.373 47.9529C41.3947 47.9529 40.6272 48.0131 40.567 48.1034C40.5068 48.1937 39.7392 48.2539 38.761 48.2539C37.7828 48.2539 37.0152 48.3141 36.955 48.4044C36.9099 48.4947 36.1724 48.5549 35.2845 48.5549C34.3363 48.5549 33.7193 48.6151 33.7193 48.7054C33.7193 48.7806 33.5537 48.8559 33.343 48.8559C33.0872 48.8559 32.726 49.0816 32.2895 49.5331L31.6123 50.1953V51.3391C31.6123 51.9863 31.6725 52.4678 31.7628 52.4678C31.8531 52.4678 31.9133 52.5732 31.9133 52.7086C31.9133 53.0548 32.6658 53.6718 33.0872 53.6718C33.2678 53.6718 33.4183 53.732 33.4183 53.8223C33.4183 53.9126 34.1407 53.9728 35.2845 53.9728C36.3831 53.9728 37.1958 54.033 37.256 54.1233C37.3162 54.2136 38.46 54.2738 40.1907 54.2738C41.9215 54.2738 43.0653 54.334 43.1255 54.4243C43.1857 54.5297 47.5351 54.5748 55.6921 54.5748C63.8491 54.5748 68.1986 54.5297 68.2588 54.4243C68.319 54.334 69.4627 54.2738 71.2085 54.2738C72.9995 54.2738 74.053 54.2136 74.053 54.1233C74.053 54.033 74.8506 53.9728 76.1599 53.9728C77.4693 53.9728 78.2669 53.9126 78.2669 53.8223C78.2669 53.732 78.5228 53.6718 78.8388 53.6718C79.2301 53.6718 79.4709 53.5815 79.6214 53.3708C79.7418 53.2053 79.9224 53.0698 80.0428 53.0698C80.3137 53.0698 80.6749 52.6936 80.6749 52.4076C80.6749 52.2722 80.7502 52.1668 80.8254 52.1668C80.9157 52.1668 80.9759 52.0314 80.9759 51.8809C80.9759 51.7154 81.0511 51.5348 81.1264 51.4896C81.2167 51.4445 81.2769 50.9027 81.2769 50.2856C81.2769 49.6686 81.2167 49.1268 81.1264 49.0816C81.0511 49.0365 80.9759 48.8559 80.9759 48.6903C80.9759 48.3442 79.7268 47.0499 79.3957 47.0499C79.2753 47.0499 79.1699 46.9746 79.1699 46.8994C79.1699 46.8091 78.8388 46.7489 78.4325 46.7489C78.0111 46.7489 77.6348 46.6736 77.5897 46.5984C77.5295 46.5081 74.8807 46.4479 70.14 46.4479C65.3993 46.4479 62.7505 46.5081 62.6903 46.5984Z" fill="#F8FCFC"/>
<path d="M74.5797 58.9393C74.5195 59.0296 73.3305 59.0898 71.4944 59.0898C69.6584 59.0898 68.4694 59.15 68.4092 59.2403C68.349 59.3306 67.3557 59.3908 65.9109 59.3908C64.421 59.3908 63.518 59.451 63.518 59.5413C63.518 59.6316 62.5699 59.6918 60.9746 59.6918C59.4244 59.6918 58.386 59.752 58.3258 59.8423C58.2656 59.9326 55.8125 59.9928 51.4781 59.9928C47.1437 59.9928 44.6906 59.9326 44.6304 59.8423C44.5702 59.752 43.7575 59.6918 42.6739 59.6918C41.5903 59.6918 40.7776 59.752 40.7174 59.8423C40.6723 59.9326 39.9348 59.9928 39.062 59.9928C38.1891 59.9928 37.4516 60.053 37.4065 60.1433C37.3613 60.2185 36.955 60.2938 36.5035 60.2938C36.052 60.2938 35.6456 60.354 35.6005 60.4443C35.5553 60.5195 35.3145 60.5948 35.0587 60.5948C34.8179 60.5948 34.6222 60.655 34.6222 60.7453C34.6222 60.8205 34.4567 60.8958 34.246 60.8958C33.8095 60.8958 33.3581 61.1215 32.8614 61.6031C32.5905 61.859 32.5153 62.0998 32.5153 62.7018C32.5153 63.364 32.5755 63.5295 33.042 63.981C33.328 64.267 33.659 64.5078 33.7945 64.5078C33.9149 64.5078 34.0202 64.568 34.0202 64.6583C34.0202 64.7335 34.1557 64.8088 34.3212 64.8088C34.4868 64.8088 34.6222 64.869 34.6222 64.9593C34.6222 65.0345 34.7577 65.1098 34.9082 65.1098C35.0737 65.1098 35.2543 65.17 35.2995 65.2603C35.3446 65.3355 35.5854 65.4108 35.8262 65.4108C36.067 65.4108 36.3078 65.471 36.353 65.5612C36.3981 65.6365 36.6389 65.7117 36.8948 65.7117C37.1356 65.7117 37.3312 65.7719 37.3312 65.8622C37.3312 65.9375 37.6774 66.0127 38.0837 66.0127C38.5051 66.0127 38.8362 66.0729 38.8362 66.1632C38.8362 66.2535 39.2877 66.3137 39.8897 66.3137C40.4917 66.3137 40.9432 66.3739 40.9432 66.4642C40.9432 66.5545 41.9365 66.6147 43.6371 66.6147C45.2776 66.6147 46.3762 66.6749 46.4364 66.7652C46.4966 66.8555 48.1671 66.9157 50.9514 66.9157C53.7356 66.9157 55.4061 66.9759 55.4663 67.0662C55.5265 67.1565 58.5515 67.2167 64.0598 67.2167C69.6132 67.2167 72.5479 67.1716 72.5479 67.0662C72.5479 66.9759 73.2402 66.9157 74.3389 66.9157C75.3773 66.9157 76.1749 66.8555 76.2351 66.7652C76.2803 66.6749 76.8672 66.6147 77.5144 66.6147C78.1615 66.6147 78.7485 66.5395 78.7936 66.4642C78.8388 66.3739 78.9893 66.3137 79.1097 66.3137C79.2301 66.3137 79.5311 66.103 79.802 65.8622C80.0578 65.6064 80.3588 65.4108 80.4642 65.4108C80.5846 65.4108 80.6749 65.2753 80.6749 65.1098C80.6749 64.9442 80.7501 64.8088 80.8254 64.8088C80.9157 64.8088 80.9759 64.6733 80.9759 64.5078C80.9759 64.3422 81.0511 64.2068 81.1264 64.2068C81.2167 64.2068 81.2769 63.9961 81.2769 63.7553C81.2769 63.4994 81.3521 63.3038 81.4274 63.3038C81.5177 63.3038 81.5779 62.9426 81.5779 62.4911C81.5779 62.0396 81.5177 61.6182 81.4274 61.573C81.3521 61.5279 81.2769 61.2871 81.2769 61.0312C81.2769 60.7904 81.2167 60.5948 81.1264 60.5948C81.0511 60.5948 80.9759 60.4894 80.9759 60.369C80.9759 60.068 80.2986 59.3908 79.9976 59.3908C79.8772 59.3908 79.7719 59.3156 79.7719 59.2403C79.7719 59.15 79.6063 59.0898 79.4107 59.0898C79.2 59.0898 78.9893 59.0146 78.9441 58.9393C78.8839 58.849 77.996 58.7888 76.7619 58.7888C75.5278 58.7888 74.6399 58.849 74.5797 58.9393Z" fill="#F8FCFC"/>
<path d="M37.557 71.8822C37.5118 71.9574 36.955 72.0327 36.3379 72.0327C35.6908 72.0327 35.2243 72.0929 35.2243 72.1832C35.2243 72.2584 35.1189 72.3337 34.9835 72.3337C34.8631 72.3337 34.6524 72.424 34.532 72.5444C34.4116 72.6648 34.3213 72.8755 34.3213 72.9959C34.3213 73.1313 34.2611 73.2367 34.1708 73.2367C34.0955 73.2367 34.0203 73.5979 34.0203 74.0494C34.0203 74.5009 34.0955 74.9223 34.1708 74.9674C34.2611 75.0126 34.3213 75.1631 34.3213 75.2835C34.3213 75.5393 34.9835 76.2467 35.2243 76.2467C35.3146 76.2467 35.5253 76.3821 35.7058 76.5477C35.8864 76.7132 36.1272 76.8487 36.2326 76.8487C36.3379 76.8487 36.4282 76.9089 36.4282 76.9992C36.4282 77.0744 36.5637 77.1497 36.7292 77.1497C36.8948 77.1497 37.0302 77.2099 37.0302 77.3002C37.0302 77.3754 37.1657 77.4507 37.3162 77.4507C37.4817 77.4507 37.6623 77.5109 37.7075 77.6012C37.7526 77.6764 37.9633 77.7516 38.174 77.7516C38.3697 77.7516 38.5352 77.8118 38.5352 77.9021C38.5352 77.9774 38.7459 78.0526 38.9867 78.0526C39.2426 78.0526 39.4382 78.1128 39.4382 78.2031C39.4382 78.2784 39.7091 78.3536 40.0402 78.3536C40.3713 78.3536 40.6422 78.4138 40.6422 78.5041C40.6422 78.5794 40.9432 78.6546 41.3044 78.6546C41.6807 78.6546 42.0268 78.7148 42.0719 78.8051C42.1171 78.8804 42.5987 78.9556 43.1254 78.9556C43.6522 78.9556 44.1338 79.0158 44.1789 79.1061C44.2391 79.1964 45.0368 79.2566 46.0752 79.2566C47.1739 79.2566 47.8662 79.3168 47.8662 79.4071C47.8662 79.4974 48.9196 79.5576 50.7256 79.5576C52.5316 79.5576 53.5851 79.6178 53.5851 79.7081C53.5851 79.7984 54.2924 79.8586 55.3911 79.8586C56.4897 79.8586 57.1971 79.9188 57.1971 80.0091C57.1971 80.0994 57.8141 80.1596 58.7623 80.1596C59.6502 80.1596 60.3876 80.2198 60.4328 80.3101C60.4779 80.3854 61.1251 80.4606 61.8625 80.4606C62.6 80.4606 63.2471 80.5208 63.2923 80.6111C63.3525 80.7014 64.2254 80.7616 65.3993 80.7616C66.5731 80.7616 67.446 80.8218 67.5062 80.9121C67.5664 81.0024 69.1918 81.0626 71.8858 81.0626C74.6399 81.0626 76.1599 81.0024 76.1599 80.9121C76.1599 80.8218 76.4459 80.7616 76.8071 80.7616C77.4542 80.7616 78.2669 80.4907 78.2669 80.265C78.2669 80.2048 78.3723 80.1596 78.4926 80.1596C78.7936 80.1596 79.7719 79.1814 79.7719 78.8804C79.7719 78.76 79.8471 78.6546 79.9224 78.6546C80.0127 78.6546 80.0729 78.4891 80.0729 78.2934C80.0729 78.0827 80.1481 77.872 80.2234 77.8269C80.404 77.7215 80.4341 75.6447 80.2535 75.6447C80.1933 75.6447 80.0578 75.449 79.9525 75.2082C79.8471 74.9524 79.5612 74.6664 79.3053 74.5611C79.0645 74.4557 78.8689 74.3203 78.8689 74.2601C78.8689 74.1848 78.7334 74.1397 78.5679 74.1397C78.4023 74.1397 78.2669 74.0644 78.2669 73.9892C78.2669 73.8989 78.0713 73.8387 77.8154 73.8387C77.5746 73.8387 77.3639 73.7634 77.3639 73.6882C77.3639 73.5979 77.1683 73.5377 76.9124 73.5377C76.6716 73.5377 76.4609 73.4624 76.4609 73.3872C76.4609 73.2969 76.2352 73.2367 75.9492 73.2367C75.6633 73.2367 75.3773 73.1614 75.3322 73.0862C75.287 72.9959 74.971 72.9357 74.6399 72.9357C74.3238 72.9357 74.0529 72.8604 74.0529 72.7852C74.0529 72.6949 73.6014 72.6347 72.9994 72.6347C72.3974 72.6347 71.946 72.5745 71.946 72.4842C71.946 72.3788 68.334 72.3337 61.411 72.3337C54.4881 72.3337 50.8761 72.2885 50.8761 72.1832C50.8761 72.0929 49.8076 72.0327 47.9564 72.0327C46.1655 72.0327 44.9916 71.9725 44.9314 71.8822C44.8712 71.7919 43.4716 71.7317 41.2442 71.7317C39.0168 71.7317 37.6172 71.7919 37.557 71.8822Z" fill="#F8FCFC"/>
<path d="M34.3212 86.6311C34.3212 86.7063 34.2159 86.7816 34.0804 86.7816C33.5236 86.7816 33.1172 87.6244 33.1172 88.7531C33.1172 89.6411 33.1323 89.7013 33.7945 90.3334C34.2309 90.7698 34.5921 90.9956 34.848 90.9956C35.0587 90.9956 35.2242 91.0558 35.2242 91.1461C35.2242 91.2213 35.4349 91.2966 35.6757 91.2966C35.9316 91.2966 36.1272 91.3568 36.1272 91.4471C36.1272 91.5223 36.3379 91.5976 36.5787 91.5976C36.8346 91.5976 37.0302 91.6578 37.0302 91.748C37.0302 91.8233 37.2409 91.8985 37.4817 91.8985C37.7376 91.8985 37.9332 91.9587 37.9332 92.049C37.9332 92.1243 38.2041 92.1995 38.5352 92.1995C38.8663 92.1995 39.1372 92.2597 39.1372 92.35C39.1372 92.4253 39.4081 92.5005 39.7392 92.5005C40.0703 92.5005 40.3412 92.5607 40.3412 92.651C40.3412 92.7263 40.6873 92.8015 41.0937 92.8015C41.5151 92.8015 41.8462 92.8617 41.8462 92.952C41.8462 93.0423 42.2525 93.1025 42.7492 93.1025C43.2458 93.1025 43.6522 93.1627 43.6522 93.253C43.6522 93.3433 44.1488 93.4035 44.8411 93.4035C45.5033 93.4035 46.0902 93.4637 46.1354 93.554C46.1956 93.6443 46.9631 93.7045 47.9564 93.7045C48.9949 93.7045 49.6721 93.7647 49.6721 93.855C49.6721 93.9453 50.8009 94.0055 52.7423 94.0055C54.6386 94.0055 55.8576 94.0657 55.9178 94.156C55.978 94.2463 57.2272 94.3065 59.1535 94.3065C61.0799 94.3065 62.3291 94.3667 62.3893 94.457C62.5097 94.6677 74.7603 94.6677 74.8807 94.457C74.9258 94.3667 75.4375 94.3065 76.0244 94.3065C76.6114 94.3065 77.0629 94.2463 77.0629 94.156C77.0629 94.0657 77.4241 94.0055 77.8756 94.0055C78.3271 94.0055 78.7485 93.9303 78.7936 93.855C78.8388 93.7647 79.0194 93.7045 79.1849 93.7045C79.3354 93.7045 79.4709 93.6594 79.4709 93.5841C79.4709 93.5239 79.6816 93.3885 79.9224 93.2831C80.1933 93.1627 80.3739 92.9671 80.3739 92.7865C80.3739 92.636 80.4491 92.5005 80.5244 92.5005C80.6147 92.5005 80.6749 92.335 80.6749 92.1393C80.6749 91.9286 80.7501 91.718 80.8254 91.6728C80.9157 91.6277 80.9759 91.3116 80.9759 90.9956C80.9759 90.6795 80.9157 90.3635 80.8254 90.3183C80.7501 90.2732 80.6749 90.0324 80.6749 89.8066C80.6749 89.2197 79.215 87.6846 78.6582 87.6846C78.4475 87.6846 78.2669 87.6093 78.2669 87.5341C78.2669 87.4438 78.0411 87.3836 77.7552 87.3836C77.4692 87.3836 77.1833 87.3083 77.1381 87.2331C77.093 87.1428 76.7769 87.0826 76.4458 87.0826C76.1298 87.0826 75.8589 87.0073 75.8589 86.9321C75.8589 86.8418 75.3322 86.7816 74.5947 86.7816C73.8874 86.7816 73.2703 86.7063 73.2252 86.6311C73.165 86.5408 72.2168 86.4806 70.8924 86.4806C69.568 86.4806 68.6199 86.5408 68.5597 86.6311C68.4995 86.7214 67.732 86.7816 66.7537 86.7816C65.7755 86.7816 65.0079 86.8418 64.9477 86.9321C64.8875 87.0224 64.1501 87.0826 63.217 87.0826C62.2839 87.0826 61.5465 87.1428 61.4863 87.2331C61.4261 87.3234 60.5381 87.3836 59.289 87.3836C57.9947 87.3836 57.1971 87.4438 57.1971 87.5341C57.1971 87.6394 55.0449 87.6846 51.0266 87.6846C47.0083 87.6846 44.8562 87.6394 44.8562 87.5341C44.8562 87.4438 44.1037 87.3836 42.8997 87.3836C41.6957 87.3836 40.9432 87.3234 40.9432 87.2331C40.9432 87.1428 40.4917 87.0826 39.8897 87.0826C39.2877 87.0826 38.8362 87.0224 38.8362 86.9321C38.8362 86.8418 38.3847 86.7816 37.7827 86.7816C37.1807 86.7816 36.7292 86.7214 36.7292 86.6311C36.7292 86.5408 36.2326 86.4806 35.5252 86.4806C34.8179 86.4806 34.3212 86.5408 34.3212 86.6311Z" fill="#F8FCFC"/>
<path d="M32.5153 100.477C32.5153 100.552 32.3497 100.627 32.139 100.627C31.7026 100.627 30.7093 101.515 30.7093 101.907C30.7093 102.027 30.6491 102.132 30.5588 102.132C30.318 102.132 30.3782 104.134 30.634 104.646C30.7544 104.887 31.0253 105.188 31.236 105.293C31.4467 105.398 31.6123 105.549 31.6123 105.624C31.6123 105.684 31.7477 105.744 31.9133 105.744C32.0788 105.744 32.2143 105.805 32.2143 105.895C32.2143 105.97 32.3497 106.045 32.5153 106.045C32.6808 106.045 32.8163 106.106 32.8163 106.196C32.8163 106.271 32.9517 106.346 33.1173 106.346C33.2828 106.346 33.4183 106.407 33.4183 106.497C33.4183 106.572 33.5537 106.647 33.7193 106.647C33.8848 106.647 34.0203 106.708 34.0203 106.798C34.0203 106.873 34.231 106.948 34.4718 106.948C34.7276 106.948 34.9233 107.009 34.9233 107.099C34.9233 107.174 35.1339 107.249 35.3747 107.249C35.6306 107.249 35.8262 107.31 35.8262 107.4C35.8262 107.475 36.0369 107.55 36.2777 107.55C36.5336 107.55 36.7292 107.611 36.7292 107.701C36.7292 107.776 37.0001 107.851 37.3312 107.851C37.6623 107.851 37.9332 107.912 37.9332 108.002C37.9332 108.077 38.2041 108.152 38.5352 108.152C38.8663 108.152 39.1372 108.213 39.1372 108.303C39.1372 108.378 39.4834 108.453 39.8897 108.453C40.3111 108.453 40.6422 108.514 40.6422 108.604C40.6422 108.694 41.0636 108.754 41.6054 108.754C42.1472 108.754 42.6288 108.815 42.6739 108.905C42.7191 108.98 43.3662 109.055 44.1187 109.055C44.9164 109.055 45.4582 109.116 45.4582 109.206C45.4582 109.296 46.1053 109.356 47.1137 109.356C48.122 109.356 48.7691 109.417 48.7691 109.507C48.7691 109.597 49.5216 109.657 50.7256 109.657C51.9296 109.657 52.6821 109.718 52.6821 109.808C52.6821 109.898 53.4346 109.958 54.6235 109.958C55.7673 109.958 56.6101 110.019 56.6703 110.109C56.7305 110.199 57.5432 110.259 58.6419 110.259C59.7856 110.259 60.508 110.32 60.508 110.41C60.508 110.5 61.2304 110.56 62.3742 110.56C63.4729 110.56 64.2856 110.621 64.3458 110.711C64.406 110.801 65.2036 110.861 66.227 110.861C67.2504 110.861 68.048 110.922 68.1082 111.012C68.1684 111.102 68.936 111.162 69.9142 111.162C70.8925 111.162 71.66 111.223 71.7202 111.313C71.7654 111.388 72.3824 111.463 73.0897 111.463C73.8272 111.463 74.3539 111.524 74.3539 111.614C74.3539 111.704 74.7452 111.764 75.2419 111.764C75.7385 111.764 76.19 111.825 76.2352 111.915C76.2954 112.005 77.1081 112.065 78.2067 112.065C79.3505 112.065 80.0729 112.005 80.0729 111.915C80.0729 111.825 80.3438 111.764 80.6749 111.764C81.006 111.764 81.2769 111.689 81.2769 111.614C81.2769 111.524 81.3822 111.463 81.5177 111.463C81.8337 111.463 82.7819 110.515 82.7819 110.199C82.7819 110.064 82.8571 109.958 82.9324 109.958C83.0227 109.958 83.0829 109.763 83.0829 109.522C83.0829 109.266 83.1581 109.025 83.2334 108.98C83.3237 108.935 83.3839 108.453 83.3839 107.912C83.3839 107.37 83.3237 106.948 83.2334 106.948C83.1581 106.948 83.0829 106.738 83.0829 106.497C83.0829 106.241 83.0227 106.045 82.9324 106.045C82.8571 106.045 82.7819 105.94 82.7819 105.835C82.7819 105.714 82.526 105.413 82.225 105.188C81.909 104.962 81.6381 104.721 81.608 104.646C81.5779 104.586 81.4274 104.54 81.2618 104.54C81.1113 104.54 80.9759 104.465 80.9759 104.39C80.9759 104.3 80.8404 104.239 80.6899 104.239C80.5244 104.239 80.3438 104.164 80.2986 104.089C80.2535 103.999 80.0428 103.938 79.8321 103.938C79.6364 103.938 79.4709 103.863 79.4709 103.788C79.4709 103.698 79.2 103.637 78.8839 103.637C78.5528 103.637 78.2368 103.562 78.1917 103.487C78.1465 103.397 77.6649 103.336 77.1231 103.336C76.5813 103.336 76.1599 103.276 76.1599 103.186C76.1599 103.081 71.6751 103.035 63.0063 103.035C54.3827 103.035 49.8076 102.99 49.7474 102.885C49.6872 102.795 48.739 102.734 47.3996 102.734C46 102.734 45.1572 102.674 45.1572 102.584C45.1572 102.494 44.5552 102.433 43.6522 102.433C42.7492 102.433 42.1472 102.373 42.1472 102.283C42.1472 102.193 41.7408 102.132 41.2442 102.132C40.7476 102.132 40.3412 102.072 40.3412 101.982C40.3412 101.892 39.9349 101.831 39.4382 101.831C38.9416 101.831 38.5352 101.771 38.5352 101.681C38.5352 101.591 38.2643 101.53 37.9332 101.53C37.6021 101.53 37.3312 101.455 37.3312 101.38C37.3312 101.29 37.0603 101.229 36.7292 101.229C36.3981 101.229 36.1272 101.154 36.1272 101.079C36.1272 100.989 35.8563 100.928 35.5252 100.928C35.1941 100.928 34.9233 100.853 34.9233 100.778C34.9233 100.688 34.5922 100.627 34.1708 100.627C33.7644 100.627 33.4183 100.552 33.4183 100.477C33.4183 100.387 33.2226 100.326 32.9668 100.326C32.726 100.326 32.5153 100.387 32.5153 100.477Z" fill="#F8FCFC"/>
</svg>
