<svg width="147" height="160" viewBox="0 0 147 160" fill="none" xmlns="http://www.w3.org/2000/svg">
<path d="M66.5015 1.80654C55.3998 5.39756 50.1574 10.0146 44.9149 20.8902C42.3451 26.328 41.934 28.0722 42.1395 35.2543C42.3451 42.5389 42.1395 43.9753 39.7753 47.5663C37.3083 51.4651 37.2055 52.1833 38.0278 57.8263C39.2613 65.5214 43.7842 74.858 47.0736 76.4996C48.8211 77.3204 50.1574 79.475 51.4937 83.6816C52.5216 86.9648 53.344 90.3507 53.344 91.2741C53.344 92.4027 49.2322 94.7625 40.2893 98.7639C23.0201 106.459 20.553 108.203 15.105 116.514C9.55418 124.824 1.12516 144.524 0.30282 151.09C-0.313938 155.194 -0.108352 156.015 2.0503 157.759C4.41454 159.811 6.26481 159.811 74.0053 159.914C142.671 159.914 143.493 159.914 145.344 157.862C147.194 155.81 147.194 155.502 145.035 148.217C143.802 144.011 140.41 134.982 137.429 128.005C130.644 111.897 124.888 105.536 113.169 101.021C105.254 97.9431 99.6008 94.0443 99.6008 91.5819C99.6008 90.8637 100.526 88.709 101.657 86.8622C102.787 85.0154 103.712 82.6556 103.712 81.6296C103.712 80.6036 105.871 77.8334 108.441 75.4736C113.375 71.0618 118.104 63.059 118.104 59.3653C118.104 56.1847 115.739 52.1833 111.525 48.0793L107.824 44.5909L108.441 36.7933C109.058 29.7138 108.852 28.5852 106.385 23.763C102.685 16.3758 92.4053 5.70536 85.9293 2.52475C79.7617 -0.655865 74.7249 -0.758465 66.5015 1.80654ZM82.4344 11.5536C86.3405 13.0926 96.6198 24.0708 98.984 29.0982C100.834 32.8945 101.143 36.7933 99.7036 36.7933C98.3673 36.7933 75.65 31.8684 68.5573 30.0216C61.6702 28.2774 58.792 29.3034 58.278 33.7153C57.9696 36.3829 53.2412 39.5635 51.2881 38.3323C49.6434 37.3063 50.1574 28.38 52.2132 23.9682C54.8859 18.12 58.4836 15.2472 66.3987 12.5796C74.5193 9.80937 77.8087 9.60417 82.4344 11.5536ZM85.2098 44.3857C100.115 46.6429 100.423 46.7455 101.245 49.4131C101.657 50.6443 103.507 53.4145 105.357 55.5691C107.31 57.6211 108.852 59.8783 108.852 60.4939C108.852 62.1356 102.685 67.7786 98.6756 69.9332C95.4891 71.5748 95.2835 71.9852 95.9002 75.6788C96.2086 77.936 96.2086 80.501 95.9002 81.4244C94.7695 84.2972 89.2187 86.2466 80.3785 86.8622C65.3707 87.7856 59.306 84.5024 57.8669 74.9606C57.1473 69.8306 54.6803 66.5474 51.4937 66.5474C49.335 66.5474 46.4568 60.9044 45.9429 55.7743C45.6345 52.7989 46.1485 52.4911 55.9138 47.2585C67.3238 41.3077 65.6791 41.4103 85.2098 44.3857ZM95.6946 102.15C99.6008 105.741 103.61 108.203 109.777 110.768C119.543 114.77 124.477 119.387 127.766 127.8C128.794 130.467 131.261 136.008 133.111 140.112C135.064 144.216 136.606 148.012 136.606 148.628C136.606 149.346 120.571 149.654 87.6768 149.654H38.8502L39.5697 147.294C39.9809 146.063 40.4949 144.524 40.7004 143.908C40.906 143.19 39.7753 141.959 38.0278 141.138C35.1496 139.701 34.8412 139.701 33.4021 141.959C32.5798 143.292 31.5519 145.55 31.1407 146.986C30.5239 149.654 30.5239 149.654 19.8335 149.654C11.9184 149.654 9.14301 149.346 9.14301 148.32C9.14301 145.755 18.2916 124.824 20.9642 121.336C24.6647 116.514 29.496 113.641 43.6814 107.895C50.8769 104.92 57.0445 101.739 58.8948 99.8925L62.0814 96.8145L76.164 96.9171L90.3494 97.0197L95.6946 102.15Z" fill="#011532"/>
<path d="M93.536 109.537C92.508 110.152 92.3025 111.486 92.8164 113.949C93.3304 116.924 94.8723 118.566 101.965 123.798C112.655 131.904 117.076 132.212 117.076 125.03C117.076 123.901 115.328 121.746 113.272 120.207C111.114 118.668 106.899 115.385 103.918 112.923C98.47 108.613 96.2086 107.895 93.536 109.537Z" fill="#011532"/>
<path d="M37.411 114.975C33.1965 117.232 28.3653 122.67 23.02 131.186C16.2357 141.959 15.3106 144.934 18.3943 146.576C21.2725 148.115 23.7396 145.96 27.3373 138.881C28.8792 135.905 33.0937 130.775 37.5138 126.671C44.7093 120.002 47.0736 115.796 43.5786 115.796C42.7563 115.796 42.0367 115.283 42.0367 114.77C42.0367 113.436 39.9809 113.538 37.411 114.975Z" fill="#011532"/>
</svg>
